<svg width="90" height="119" viewBox="0 0 90 119" fill="none" xmlns="http://www.w3.org/2000/svg">
    <g filter="url(#filter0_d_44_459)">
        <mask id="path-1-outside-1_44_459" maskUnits="userSpaceOnUse" x="4.00024" y="0" width="86" height="115"
            fill="black">
            <rect fill="white" x="4.00024" width="86" height="115" />
            <path fill-rule="evenodd" clip-rule="evenodd"
                d="M38.0007 13C40.7622 13 43.0007 10.7614 43.0007 8C43.0007 5.23858 40.7622 3 38.0007 3C35.2393 3 33.0007 5.23858 33.0007 8C33.0007 10.7614 35.2393 13 38.0007 13ZM57.0007 22C57.0007 24.7614 54.7622 27 52.0007 27C49.2393 27 47.0007 24.7614 47.0007 22C47.0007 19.2386 49.2393 17 52.0007 17C54.7622 17 57.0007 19.2386 57.0007 22ZM86.4575 106.232L60.3335 64.2055V37.9H62.5557C63.7838 37.9 64.7779 37.0277 64.7779 35.95C64.7779 34.8723 63.7838 34 62.5557 34H31.4449C30.2168 34 29.2227 34.8723 29.2227 35.95C29.2227 37.0277 30.2168 37.9 31.4449 37.9H33.6671V64.2055L7.54293 106.232C6.79189 107.441 6.82141 108.907 7.62296 110.09C8.42434 111.275 9.87623 112 11.4451 112H82.5555C84.1244 112 85.5761 111.275 86.3776 110.09C87.1776 108.907 87.2087 107.441 86.4575 106.232Z" />
        </mask>
        <path fill-rule="evenodd" clip-rule="evenodd"
            d="M38.0007 13C40.7622 13 43.0007 10.7614 43.0007 8C43.0007 5.23858 40.7622 3 38.0007 3C35.2393 3 33.0007 5.23858 33.0007 8C33.0007 10.7614 35.2393 13 38.0007 13ZM57.0007 22C57.0007 24.7614 54.7622 27 52.0007 27C49.2393 27 47.0007 24.7614 47.0007 22C47.0007 19.2386 49.2393 17 52.0007 17C54.7622 17 57.0007 19.2386 57.0007 22ZM86.4575 106.232L60.3335 64.2055V37.9H62.5557C63.7838 37.9 64.7779 37.0277 64.7779 35.95C64.7779 34.8723 63.7838 34 62.5557 34H31.4449C30.2168 34 29.2227 34.8723 29.2227 35.95C29.2227 37.0277 30.2168 37.9 31.4449 37.9H33.6671V64.2055L7.54293 106.232C6.79189 107.441 6.82141 108.907 7.62296 110.09C8.42434 111.275 9.87623 112 11.4451 112H82.5555C84.1244 112 85.5761 111.275 86.3776 110.09C87.1776 108.907 87.2087 107.441 86.4575 106.232Z"
            fill="url(#paint0_linear_44_459)" />
        <path
            d="M60.3335 64.2055H58.1635V64.825L58.4905 65.3511L60.3335 64.2055ZM86.4575 106.232L88.3007 105.087L88.3005 105.086L86.4575 106.232ZM60.3335 37.9V35.73H58.1635V37.9H60.3335ZM33.6671 37.9H35.8371V35.73H33.6671V37.9ZM33.6671 64.2055L35.5101 65.3511L35.8371 64.825V64.2055H33.6671ZM7.54293 106.232L5.69997 105.086L5.69963 105.087L7.54293 106.232ZM7.62296 110.09L9.42011 108.874L9.41941 108.873L7.62296 110.09ZM86.3776 110.09L88.1747 111.307L88.1752 111.306L86.3776 110.09ZM40.8307 8C40.8307 9.56297 39.5637 10.83 38.0007 10.83V15.17C41.9606 15.17 45.1707 11.9599 45.1707 8H40.8307ZM38.0007 5.17C39.5637 5.17 40.8307 6.43703 40.8307 8H45.1707C45.1707 4.04012 41.9606 0.83 38.0007 0.83V5.17ZM35.1707 8C35.1707 6.43703 36.4378 5.17 38.0007 5.17V0.83C34.0409 0.83 30.8307 4.04012 30.8307 8H35.1707ZM38.0007 10.83C36.4378 10.83 35.1707 9.56297 35.1707 8H30.8307C30.8307 11.9599 34.0409 15.17 38.0007 15.17V10.83ZM52.0007 29.17C55.9606 29.17 59.1707 25.9599 59.1707 22H54.8307C54.8307 23.563 53.5637 24.83 52.0007 24.83V29.17ZM44.8307 22C44.8307 25.9599 48.0408 29.17 52.0007 29.17V24.83C50.4378 24.83 49.1707 23.563 49.1707 22H44.8307ZM52.0007 14.83C48.0408 14.83 44.8307 18.0401 44.8307 22H49.1707C49.1707 20.437 50.4378 19.17 52.0007 19.17V14.83ZM59.1707 22C59.1707 18.0401 55.9606 14.83 52.0007 14.83V19.17C53.5637 19.17 54.8307 20.437 54.8307 22H59.1707ZM58.4905 65.3511L84.6145 107.378L88.3005 105.086L62.1764 63.0599L58.4905 65.3511ZM58.1635 37.9V64.2055H62.5035V37.9H58.1635ZM62.5557 35.73H60.3335V40.07H62.5557V35.73ZM62.6079 35.95C62.6079 35.8804 62.625 35.8162 62.6483 35.7677C62.6703 35.722 62.692 35.7016 62.696 35.6981C62.7013 35.6934 62.6585 35.73 62.5557 35.73V40.07C64.7072 40.07 66.9479 38.4838 66.9479 35.95H62.6079ZM62.5557 36.17C62.6585 36.17 62.7013 36.2066 62.696 36.2019C62.692 36.1984 62.6703 36.178 62.6483 36.1323C62.625 36.0838 62.6079 36.0196 62.6079 35.95H66.9479C66.9479 33.4162 64.7072 31.83 62.5557 31.83V36.17ZM31.4449 36.17H62.5557V31.83H31.4449V36.17ZM31.3927 35.95C31.3927 36.0196 31.3756 36.0838 31.3523 36.1323C31.3303 36.178 31.3086 36.1984 31.3045 36.2019C31.2992 36.2066 31.3421 36.17 31.4449 36.17V31.83C29.2934 31.83 27.0527 33.4162 27.0527 35.95H31.3927ZM31.4449 35.73C31.3421 35.73 31.2992 35.6934 31.3045 35.6981C31.3086 35.7016 31.3303 35.722 31.3523 35.7677C31.3756 35.8162 31.3927 35.8804 31.3927 35.95H27.0527C27.0527 38.4838 29.2934 40.07 31.4449 40.07V35.73ZM33.6671 35.73H31.4449V40.07H33.6671V35.73ZM35.8371 64.2055V37.9H31.4971V64.2055H35.8371ZM9.38588 107.378L35.5101 65.3511L31.8242 63.0599L5.69997 105.086L9.38588 107.378ZM9.41941 108.873C9.09694 108.397 9.08856 107.856 9.38622 107.377L5.69963 105.087C4.49523 107.026 4.54588 109.418 5.82652 111.308L9.41941 108.873ZM11.4451 109.83C10.5141 109.83 9.77377 109.397 9.42011 108.874L5.82582 111.307C7.07491 113.152 9.23836 114.17 11.4451 114.17V109.83ZM82.5555 109.83H11.4451V114.17H82.5555V109.83ZM84.5806 108.874C84.2267 109.397 83.4863 109.83 82.5555 109.83V114.17C84.7624 114.17 86.9255 113.152 88.1747 111.307L84.5806 108.874ZM84.6143 107.377C84.911 107.855 84.9035 108.396 84.58 108.875L88.1752 111.306C89.4517 109.418 89.5064 107.027 88.3007 105.087L84.6143 107.377Z"
            fill="#2F3E46" mask="url(#path-1-outside-1_44_459)" />
    </g>
    <defs>
        <filter id="filter0_d_44_459" x="0.829956" y="0.830017" width="88.3401" height="117.34"
            filterUnits="userSpaceOnUse" color-interpolation-filters="sRGB">
            <feFlood flood-opacity="0" result="BackgroundImageFix" />
            <feColorMatrix in="SourceAlpha" type="matrix" values="0 0 0 0 0 0 0 0 0 0 0 0 0 0 0 0 0 0 127 0"
                result="hardAlpha" />
            <feOffset dx="-4" dy="4" />
            <feComposite in2="hardAlpha" operator="out" />
            <feColorMatrix type="matrix" values="0 0 0 0 0.207843 0 0 0 0 0.309804 0 0 0 0 0.321569 0 0 0 0.78 0" />
            <feBlend mode="normal" in2="BackgroundImageFix" result="effect1_dropShadow_44_459" />
            <feBlend mode="normal" in="SourceGraphic" in2="effect1_dropShadow_44_459" result="shape" />
        </filter>
        <linearGradient id="paint0_linear_44_459" x1="7.00024" y1="3" x2="105.26" y2="87.6877"
            gradientUnits="userSpaceOnUse">
            <stop stop-color="#5D97B7" />
            <stop offset="1" stop-color="#0772AE" />
        </linearGradient>
    </defs>
</svg>