<svg width="92" height="92" viewBox="0 0 92 92" fill="none" xmlns="http://www.w3.org/2000/svg">
    <g filter="url(#filter0_d_44_414)">
        <mask id="path-1-inside-1_44_414" fill="white">
            <path fill-rule="evenodd" clip-rule="evenodd"
                d="M47.5 89C72.0767 89 92 69.0767 92 44.5C92 19.9233 72.0767 0 47.5 0C22.9233 0 3 19.9233 3 44.5C3 69.0767 22.9233 89 47.5 89ZM68.8088 26.0839C63.6527 20.9497 56.6727 18.0671 49.3963 18.0671C42.1199 18.0671 35.1399 20.9497 29.9838 26.0839L26.0161 30.0516V20.5094C26.0161 19.8571 25.7569 19.2316 25.2957 18.7703C24.8345 18.3091 24.209 18.05 23.5567 18.05C22.9044 18.05 22.2789 18.3091 21.8177 18.7703C21.3565 19.2316 21.0973 19.8571 21.0973 20.5094V36.0525C21.0973 36.7078 21.3553 37.3368 21.8156 37.8032C22.2759 38.2696 22.9014 38.536 23.5567 38.5446H39.1326C39.7849 38.5446 40.4104 38.2855 40.8716 37.8243C41.3328 37.3631 41.5919 36.7376 41.5919 36.0853C41.5919 35.433 41.3328 34.8075 40.8716 34.3462C40.4104 33.885 39.7849 33.6259 39.1326 33.6259H29.2952L33.4597 29.5598C37.6893 25.3387 43.4207 22.968 49.3963 22.968C55.3719 22.968 61.1031 25.3387 65.3329 29.5598C85.6307 51.4972 55.4955 81.7309 33.4597 61.433C32.9985 60.9726 32.3735 60.7139 31.7217 60.7139C31.07 60.7139 30.445 60.9726 29.9838 61.433C29.7518 61.6593 29.5674 61.9295 29.4415 62.2279C29.3155 62.5263 29.2507 62.847 29.2507 63.171C29.2507 63.4949 29.3155 63.8156 29.4415 64.114C29.5674 64.4124 29.7518 64.683 29.9838 64.9089C35.1323 70.0575 42.1152 72.95 49.3963 72.95C56.6773 72.95 63.6602 70.0575 68.8088 64.9089C73.9574 59.7603 76.8496 52.7774 76.8496 45.4964C76.8496 38.2153 73.9574 31.2324 68.8088 26.0839ZM48.3422 36.4843C47.8385 36.4909 47.3572 36.6939 47.0009 37.0501C46.6447 37.4063 46.4418 37.8876 46.4352 38.3913V47.291C46.4357 47.7965 46.6368 48.2814 46.9946 48.6387L53.4277 54.9193C53.6037 55.0975 53.8137 55.2389 54.0451 55.335C54.2765 55.4309 54.5249 55.48 54.7754 55.4787C55.1103 55.4299 55.4261 55.2928 55.6905 55.0818C55.955 54.8707 56.1584 54.5928 56.2802 54.277C56.4017 53.9614 56.4373 53.6189 56.3829 53.2848C56.3285 52.9509 56.1861 52.6374 55.9705 52.3765L50.173 46.579V38.3913C50.1672 37.9004 49.9747 37.43 49.6347 37.0758C49.2947 36.7216 48.8325 36.5101 48.3422 36.4843Z" />
        </mask>
        <path fill-rule="evenodd" clip-rule="evenodd"
            d="M47.5 89C72.0767 89 92 69.0767 92 44.5C92 19.9233 72.0767 0 47.5 0C22.9233 0 3 19.9233 3 44.5C3 69.0767 22.9233 89 47.5 89ZM68.8088 26.0839C63.6527 20.9497 56.6727 18.0671 49.3963 18.0671C42.1199 18.0671 35.1399 20.9497 29.9838 26.0839L26.0161 30.0516V20.5094C26.0161 19.8571 25.7569 19.2316 25.2957 18.7703C24.8345 18.3091 24.209 18.05 23.5567 18.05C22.9044 18.05 22.2789 18.3091 21.8177 18.7703C21.3565 19.2316 21.0973 19.8571 21.0973 20.5094V36.0525C21.0973 36.7078 21.3553 37.3368 21.8156 37.8032C22.2759 38.2696 22.9014 38.536 23.5567 38.5446H39.1326C39.7849 38.5446 40.4104 38.2855 40.8716 37.8243C41.3328 37.3631 41.5919 36.7376 41.5919 36.0853C41.5919 35.433 41.3328 34.8075 40.8716 34.3462C40.4104 33.885 39.7849 33.6259 39.1326 33.6259H29.2952L33.4597 29.5598C37.6893 25.3387 43.4207 22.968 49.3963 22.968C55.3719 22.968 61.1031 25.3387 65.3329 29.5598C85.6307 51.4972 55.4955 81.7309 33.4597 61.433C32.9985 60.9726 32.3735 60.7139 31.7217 60.7139C31.07 60.7139 30.445 60.9726 29.9838 61.433C29.7518 61.6593 29.5674 61.9295 29.4415 62.2279C29.3155 62.5263 29.2507 62.847 29.2507 63.171C29.2507 63.4949 29.3155 63.8156 29.4415 64.114C29.5674 64.4124 29.7518 64.683 29.9838 64.9089C35.1323 70.0575 42.1152 72.95 49.3963 72.95C56.6773 72.95 63.6602 70.0575 68.8088 64.9089C73.9574 59.7603 76.8496 52.7774 76.8496 45.4964C76.8496 38.2153 73.9574 31.2324 68.8088 26.0839ZM48.3422 36.4843C47.8385 36.4909 47.3572 36.6939 47.0009 37.0501C46.6447 37.4063 46.4418 37.8876 46.4352 38.3913V47.291C46.4357 47.7965 46.6368 48.2814 46.9946 48.6387L53.4277 54.9193C53.6037 55.0975 53.8137 55.2389 54.0451 55.335C54.2765 55.4309 54.5249 55.48 54.7754 55.4787C55.1103 55.4299 55.4261 55.2928 55.6905 55.0818C55.955 54.8707 56.1584 54.5928 56.2802 54.277C56.4017 53.9614 56.4373 53.6189 56.3829 53.2848C56.3285 52.9509 56.1861 52.6374 55.9705 52.3765L50.173 46.579V38.3913C50.1672 37.9004 49.9747 37.43 49.6347 37.0758C49.2947 36.7216 48.8325 36.5101 48.3422 36.4843Z"
            fill="url(#paint0_linear_44_414)" />
        <path
            d="M68.8088 26.0839L70.223 24.6697L70.22 24.6667L68.8088 26.0839ZM29.9838 26.0839L28.5726 24.6667L28.5696 24.6697L29.9838 26.0839ZM26.0161 30.0516H24.0161V34.8801L27.4303 31.4659L26.0161 30.0516ZM25.2957 18.7703L26.71 17.3562L26.7099 17.3561L25.2957 18.7703ZM21.8177 18.7703L20.4035 17.3561L20.4034 17.3562L21.8177 18.7703ZM21.0973 36.0525L23.0973 36.0527V36.0525H21.0973ZM23.5567 38.5446L23.5305 40.5444L23.5436 40.5446H23.5567V38.5446ZM40.8716 37.8243L39.4574 36.4101L39.4574 36.4101L40.8716 37.8243ZM40.8716 34.3462L42.2859 32.9321L42.2858 32.932L40.8716 34.3462ZM29.2952 33.6259L27.898 32.1949L24.384 35.6259H29.2952V33.6259ZM33.4597 29.5598L34.8569 30.9908L34.8647 30.9831L34.8725 30.9754L33.4597 29.5598ZM65.3329 29.5598L66.8009 28.2015L66.7738 28.1722L66.7457 28.1441L65.3329 29.5598ZM33.4597 61.433L32.0466 62.8484L32.0751 62.8768L32.1047 62.904L33.4597 61.433ZM29.9838 61.433L31.3801 62.8649L31.3885 62.8567L31.3969 62.8484L29.9838 61.433ZM29.4415 62.2279L27.5988 61.4503L27.5988 61.4503L29.4415 62.2279ZM29.4415 64.114L27.5988 64.8916L27.5988 64.8916L29.4415 64.114ZM29.9838 64.9089L31.398 63.4947L31.3886 63.4853L31.3791 63.476L29.9838 64.9089ZM68.8088 64.9089L67.3946 63.4947L68.8088 64.9089ZM47.0009 37.0501L45.5867 35.6359L45.5867 35.6359L47.0009 37.0501ZM48.3422 36.4843L48.4474 34.487L48.3818 34.4836L48.3161 34.4844L48.3422 36.4843ZM46.4352 38.3913L44.4353 38.3651L44.4352 38.3782V38.3913H46.4352ZM46.4352 47.291L44.4351 47.291L44.4352 47.293L46.4352 47.291ZM46.9946 48.6387L45.5814 50.0539L45.5893 50.0619L45.5974 50.0698L46.9946 48.6387ZM53.4277 54.9193L54.8511 53.5143L54.8381 53.5011L54.8249 53.4882L53.4277 54.9193ZM54.0451 55.335L53.2779 57.182L53.2796 57.1828L54.0451 55.335ZM54.7754 55.4787L54.7855 57.4787L54.9255 57.478L55.0639 57.4578L54.7754 55.4787ZM55.6905 55.0818L54.443 53.5186L54.443 53.5186L55.6905 55.0818ZM56.2802 54.277L58.1462 54.9967L58.1465 54.9959L56.2802 54.277ZM56.3829 53.2848L58.3569 52.9633L58.3569 52.9631L56.3829 53.2848ZM55.9705 52.3765L57.5121 51.1024L57.4517 51.0293L57.3847 50.9623L55.9705 52.3765ZM50.173 46.579H48.173V47.4075L48.7588 47.9932L50.173 46.579ZM50.173 38.3913H52.173V38.3794L52.1729 38.3675L50.173 38.3913ZM49.6347 37.0758L48.1917 38.4607L48.1918 38.4607L49.6347 37.0758ZM90 44.5C90 67.9721 70.9721 87 47.5 87V91C73.1812 91 94 70.1812 94 44.5H90ZM47.5 2C70.9721 2 90 21.0279 90 44.5H94C94 18.8188 73.1812 -2 47.5 -2V2ZM5 44.5C5 21.0279 24.0279 2 47.5 2V-2C21.8188 -2 1 18.8188 1 44.5H5ZM47.5 87C24.0279 87 5 67.9721 5 44.5H1C1 70.1812 21.8188 91 47.5 91V87ZM49.3963 20.0671C56.1437 20.0671 62.6163 22.7401 67.3976 27.5011L70.22 24.6667C64.689 19.1592 57.2017 16.0671 49.3963 16.0671V20.0671ZM31.395 27.5011C36.1763 22.7401 42.6489 20.0671 49.3963 20.0671V16.0671C41.591 16.0671 34.1035 19.1592 28.5726 24.6667L31.395 27.5011ZM27.4303 31.4659L31.398 27.4981L28.5696 24.6697L24.6018 28.6374L27.4303 31.4659ZM24.0161 20.5094V30.0516H28.0161V20.5094H24.0161ZM23.8815 20.1845C23.9677 20.2707 24.0161 20.3876 24.0161 20.5094H28.0161C28.0161 19.3266 27.5462 18.1924 26.71 17.3562L23.8815 20.1845ZM23.5567 20.05C23.6785 20.05 23.7954 20.0984 23.8815 20.1845L26.7099 17.3561C25.8737 16.5198 24.7394 16.05 23.5567 16.05V20.05ZM23.2319 20.1845C23.318 20.0984 23.4349 20.05 23.5567 20.05V16.05C22.374 16.05 21.2397 16.5198 20.4035 17.3561L23.2319 20.1845ZM23.0973 20.5094C23.0973 20.3876 23.1457 20.2707 23.2319 20.1845L20.4034 17.3562C19.5672 18.1924 19.0973 19.3266 19.0973 20.5094H23.0973ZM23.0973 36.0525V20.5094H19.0973V36.0525H23.0973ZM23.2392 36.3984C23.1483 36.3063 23.0973 36.1821 23.0973 36.0527L19.0973 36.0523C19.0972 37.2335 19.5624 38.3673 20.3921 39.208L23.2392 36.3984ZM23.5829 36.5448C23.4536 36.5431 23.3301 36.4905 23.2392 36.3984L20.3921 39.208C21.2218 40.0487 22.3492 40.529 23.5305 40.5444L23.5829 36.5448ZM39.1326 36.5446H23.5567V40.5446H39.1326V36.5446ZM39.4574 36.4101C39.3713 36.4962 39.2545 36.5446 39.1326 36.5446V40.5446C40.3152 40.5446 41.4495 40.0749 42.2859 39.2385L39.4574 36.4101ZM39.5919 36.0853C39.5919 36.2071 39.5436 36.3239 39.4574 36.4101L42.2858 39.2385C43.1221 38.4022 43.5919 37.268 43.5919 36.0853H39.5919ZM39.4574 35.7604C39.5436 35.8466 39.5919 35.9635 39.5919 36.0853H43.5919C43.5919 34.9025 43.1221 33.7683 42.2859 32.9321L39.4574 35.7604ZM39.1326 35.6259C39.2544 35.6259 39.3713 35.6743 39.4574 35.7605L42.2858 32.932C41.4495 32.0957 40.3153 31.6259 39.1326 31.6259V35.6259ZM29.2952 35.6259H39.1326V31.6259H29.2952V35.6259ZM32.0625 28.1288L27.898 32.1949L30.6924 35.0569L34.8569 30.9908L32.0625 28.1288ZM49.3963 20.968C42.891 20.968 36.6515 23.5489 32.0469 28.1441L34.8725 30.9754C38.7271 27.1285 43.9505 24.968 49.3963 24.968V20.968ZM66.7457 28.1441C62.141 23.5489 55.9016 20.968 49.3963 20.968V24.968C54.8421 24.968 60.0653 27.1285 63.9201 30.9754L66.7457 28.1441ZM32.1047 62.904C56.0093 84.9233 88.8535 52.0354 66.8009 28.2015L63.8649 30.9181C82.408 50.959 54.9817 78.5384 34.8147 59.962L32.1047 62.904ZM31.7217 62.7139C31.8434 62.7139 31.9603 62.7622 32.0466 62.8484L34.8727 60.0176C34.0368 59.183 32.9035 58.7139 31.7217 58.7139V62.7139ZM31.3969 62.8484C31.4832 62.7622 31.6001 62.7139 31.7217 62.7139V58.7139C30.54 58.7139 29.4067 59.183 28.5708 60.0176L31.3969 62.8484ZM31.2841 63.0054C31.3062 62.953 31.3388 62.9052 31.3801 62.8649L28.5875 60.0011C28.1648 60.4133 27.8285 60.9059 27.5988 61.4503L31.2841 63.0054ZM31.2507 63.171C31.2507 63.1139 31.2621 63.0576 31.2841 63.0054L27.5988 61.4503C27.369 61.995 27.2507 62.5801 27.2507 63.171H31.2507ZM31.2841 63.3365C31.2621 63.2843 31.2507 63.228 31.2507 63.171H27.2507C27.2507 63.7618 27.369 64.3469 27.5988 64.8916L31.2841 63.3365ZM31.3791 63.476C31.3392 63.4372 31.3066 63.3897 31.2841 63.3365L27.5988 64.8916C27.8282 65.4352 28.1644 65.9288 28.5885 66.3418L31.3791 63.476ZM49.3963 70.95C42.6457 70.95 36.1715 68.2682 31.398 63.4947L28.5696 66.3231C34.0932 71.8468 41.5847 74.95 49.3963 74.95V70.95ZM67.3946 63.4947C62.6211 68.2682 56.1468 70.95 49.3963 70.95V74.95C57.2077 74.95 64.6994 71.8467 70.223 66.3231L67.3946 63.4947ZM74.8496 45.4964C74.8496 52.247 72.168 58.7212 67.3946 63.4947L70.223 66.3231C75.7467 60.7994 78.8496 53.3078 78.8496 45.4964H74.8496ZM67.3946 27.4981C72.168 32.2716 74.8496 38.7457 74.8496 45.4964H78.8496C78.8496 37.6849 75.7467 30.1933 70.223 24.6697L67.3946 27.4981ZM48.4151 38.4644C48.4026 38.4768 48.3859 38.4839 48.3684 38.4841L48.3161 34.4844C47.2911 34.4978 46.3117 34.9109 45.5867 35.6359L48.4151 38.4644ZM48.435 38.4176C48.4348 38.4348 48.4278 38.4517 48.4151 38.4643L45.5867 35.6359C44.8616 36.361 44.4488 37.3404 44.4353 38.3651L48.435 38.4176ZM48.4352 47.291V38.3913H44.4352V47.291H48.4352ZM48.4078 47.2235C48.4256 47.2412 48.4351 47.2648 48.4351 47.289L44.4352 47.293C44.4362 48.3282 44.848 49.3216 45.5814 50.0539L48.4078 47.2235ZM54.8249 53.4882L48.3917 47.2076L45.5974 50.0698L52.0306 56.3504L54.8249 53.4882ZM54.8123 53.488C54.8264 53.4939 54.8396 53.5026 54.8511 53.5143L52.0044 56.3243C52.3678 56.6925 52.801 56.9839 53.2779 57.182L54.8123 53.488ZM54.7652 53.4787C54.7825 53.4786 54.7977 53.482 54.8106 53.4873L53.2796 57.1828C53.7553 57.3798 54.2673 57.4813 54.7855 57.4787L54.7652 53.4787ZM54.443 53.5186C54.4554 53.5087 54.4705 53.502 54.4869 53.4996L55.0639 57.4578C55.7501 57.3578 56.3968 57.077 56.9381 56.645L54.443 53.5186ZM54.4142 53.5573C54.4196 53.5432 54.4291 53.5296 54.443 53.5186L56.9381 56.645C57.4808 56.2118 57.8972 55.6424 58.1462 54.9967L54.4142 53.5573ZM54.4089 53.6063C54.4062 53.5898 54.408 53.5733 54.4139 53.5581L58.1465 54.9959C58.3955 54.3496 58.4684 53.6481 58.3569 52.9633L54.4089 53.6063ZM54.4289 53.6507C54.4187 53.6383 54.4117 53.6232 54.409 53.6066L58.3569 52.9631C58.2453 52.2787 57.9536 51.6365 57.5121 51.1024L54.4289 53.6507ZM48.7588 47.9932L54.5563 53.7907L57.3847 50.9623L51.5872 45.1648L48.7588 47.9932ZM48.173 38.3913V46.579H52.173V38.3913H48.173ZM48.1918 38.4607C48.18 38.4484 48.1733 38.4322 48.1731 38.4152L52.1729 38.3675C52.161 37.3685 51.7693 36.4116 51.0776 35.6909L48.1918 38.4607ZM48.2371 38.4815C48.2201 38.4806 48.2039 38.4733 48.1917 38.4607L51.0777 35.6909C50.3856 34.9698 49.4449 34.5395 48.4474 34.487L48.2371 38.4815Z"
            fill="#2F3E46" mask="url(#path-1-inside-1_44_414)" />
    </g>
    <defs>
        <filter id="filter0_d_44_414" x="0" y="0" width="92" height="92" filterUnits="userSpaceOnUse"
            color-interpolation-filters="sRGB">
            <feFlood flood-opacity="0" result="BackgroundImageFix" />
            <feColorMatrix in="SourceAlpha" type="matrix" values="0 0 0 0 0 0 0 0 0 0 0 0 0 0 0 0 0 0 127 0"
                result="hardAlpha" />
            <feOffset dx="-3" dy="3" />
            <feComposite in2="hardAlpha" operator="out" />
            <feColorMatrix type="matrix" values="0 0 0 0 0.207843 0 0 0 0 0.309804 0 0 0 0 0.321569 0 0 0 0.61 0" />
            <feBlend mode="normal" in2="BackgroundImageFix" result="effect1_dropShadow_44_414" />
            <feBlend mode="normal" in="SourceGraphic" in2="effect1_dropShadow_44_414" result="shape" />
        </filter>
        <linearGradient id="paint0_linear_44_414" x1="47.5" y1="0" x2="47.5" y2="89" gradientUnits="userSpaceOnUse">
            <stop stop-color="#FFC700" />
            <stop offset="1" stop-color="#00D1FF" />
        </linearGradient>
    </defs>
</svg>