<svg width="116" height="92" viewBox="0 0 116 92" fill="none" xmlns="http://www.w3.org/2000/svg">
<g filter="url(#filter0_d_44_400)">
<path fill-rule="evenodd" clip-rule="evenodd" d="M116 12.1776C116 5.45164 110.548 0 103.822 0H14.1776C7.45164 0 2 5.45164 2 12.1776C2 25.4953 2 51.8619 2 65.1795C2 71.9055 7.45164 77.3571 14.1776 77.3571H41.3585L56.5571 88.7571C58.0066 89.8442 59.9934 89.8442 61.4429 88.7571L76.6415 77.3571H103.822C110.548 77.3571 116 71.9055 116 65.1795V12.1776ZM32.7556 50.8929H44.5301L46.9934 58.2866C47.7059 60.42 50.0144 61.5722 52.1437 60.8638C54.2771 60.1513 55.4294 57.8428 54.7209 55.7134L42.5066 19.0706C41.9529 17.4054 40.3936 16.2857 38.6429 16.2857C36.8921 16.2857 35.3328 17.4054 34.7791 19.0706L22.5648 55.7134C21.8564 57.8428 23.0086 60.1513 25.142 60.8638C27.2714 61.5722 29.5799 60.42 30.2924 58.2866L32.7556 50.8929ZM75.2857 22.3929H67.1429C64.8954 22.3929 63.0714 24.2169 63.0714 26.4643C63.0714 28.7117 64.8954 30.5357 67.1429 30.5357H75.1717C75.1147 32.3841 75.0944 34.6641 75.2776 37.1355C75.188 38.0679 75.0618 39.0246 74.8867 39.9896C73.9666 45.1074 71.6621 50.5956 65.5184 53.2665C63.4582 54.1622 62.5136 56.5644 63.4094 58.6245C64.3051 60.6846 66.7072 61.6292 68.7674 60.7335C73.7386 58.5716 77.1056 55.2289 79.3571 51.4059C81.6087 55.2289 84.9757 58.5716 89.9469 60.7335C92.0071 61.6292 94.4092 60.6846 95.3049 58.6245C96.2006 56.5644 95.2561 54.1622 93.1959 53.2665C87.0521 50.5956 84.7477 45.1074 83.8276 39.9896C83.6525 39.0246 83.5263 38.0679 83.4367 37.1355C83.6199 34.6641 83.5996 32.3841 83.5426 30.5357H91.5714C93.8189 30.5357 95.6429 28.7117 95.6429 26.4643C95.6429 24.2169 93.8189 22.3929 91.5714 22.3929H83.4286V20.3571C83.4286 18.1097 81.6046 16.2857 79.3571 16.2857C77.1097 16.2857 75.2857 18.1097 75.2857 20.3571V22.3929ZM35.4712 42.75H41.8145L38.6429 33.231L35.4712 42.75Z" fill="url(#paint0_linear_44_400)"/>
<path d="M46.0449 58.6033L46.0446 58.6026L43.8093 51.8929H33.4765L31.2411 58.6026L31.2409 58.6033C30.3536 61.2602 27.4793 62.6953 24.8263 61.8126L24.8252 61.8123C22.1684 60.925 20.7333 58.0507 21.6159 55.3977L21.6161 55.3972L33.8302 18.755C34.5202 16.6797 36.4629 15.2857 38.6429 15.2857C40.8226 15.2857 42.7651 16.6794 43.4553 18.7543L46.0449 58.6033ZM46.0449 58.6033C46.9322 61.2602 49.8064 62.6953 52.4594 61.8126L52.4605 61.8123C55.1173 60.925 56.5524 58.0507 55.6698 55.3977L55.6696 55.3972L43.4556 18.755L46.0449 58.6033ZM75.2776 37.1355C75.188 38.0679 75.0618 39.0246 74.8867 39.9896M75.2776 37.1355C75.1262 35.093 75.1138 33.1812 75.1462 31.5357H74.146M75.2776 37.1355L74.2822 37.0399C74.2795 37.0678 74.2768 37.0957 74.274 37.1236M75.2776 37.1355L74.2803 37.2094C74.2782 37.1808 74.2761 37.1522 74.274 37.1236M74.8867 39.9896L83.4286 20.3571C83.4286 18.1097 81.6046 16.2857 79.3571 16.2857C77.1097 16.2857 75.2857 18.1097 75.2857 20.3571V21.3929H74.2857M74.8867 39.9896C73.9666 45.1074 71.6621 50.5956 65.5184 53.2665C63.4582 54.1622 62.5136 56.5644 63.4094 58.6245C64.3051 60.6846 66.7072 61.6292 68.7674 60.7335C73.3203 58.7535 76.5277 55.783 78.7649 52.3602C78.955 52.6683 79.1523 52.9732 79.3571 53.2745M74.8867 39.9896L83.5681 31.5357M74.146 31.5357C74.1528 31.19 74.1615 30.8562 74.1712 30.5357H67.1429C64.8954 30.5357 63.0714 28.7117 63.0714 26.4643C63.0714 24.2169 64.8954 22.3929 67.1429 22.3929H74.2857V21.3929M74.146 31.5357H67.1429C64.3431 31.5357 62.0714 29.264 62.0714 26.4643C62.0714 23.6646 64.3431 21.3929 67.1429 21.3929H74.2857M74.146 31.5357C74.1141 33.1739 74.1262 35.0813 74.274 37.1236M74.2857 21.3929V20.3571C74.2857 17.5574 76.5574 15.2857 79.3571 15.2857C82.1569 15.2857 84.4286 17.5574 84.4286 20.3571V21.3929H91.5714C94.3711 21.3929 96.6429 23.6646 96.6429 26.4643C96.6429 29.264 94.3711 31.5357 91.5714 31.5357H84.5683M74.274 37.1236C74.1873 38.0053 74.067 38.9058 73.9028 39.811L73.9025 39.8126C73.0082 44.7866 70.8171 49.8726 65.1197 52.3494L65.1196 52.3494C62.5523 53.4656 61.3767 56.4573 62.4923 59.0232C63.6085 61.5905 66.6001 62.7662 69.1661 61.6506L69.1662 61.6505C73.7488 59.6576 77.0337 56.6933 79.3571 53.2745M79.3571 53.2745C81.6806 56.6933 84.9655 59.6576 89.5481 61.6505L89.5482 61.6506C92.1142 62.7662 95.1058 61.5905 96.222 59.0232C97.3376 56.4573 96.1619 53.4656 93.5947 52.3494L93.1959 53.2665M79.3571 53.2745C79.562 52.9732 79.7593 52.6683 79.9494 52.3602C82.1866 55.783 85.394 58.7535 89.9469 60.7335C92.0071 61.6292 94.4092 60.6846 95.3049 58.6245C96.2006 56.5644 95.2561 54.1622 93.1959 53.2665M93.1959 53.2665L93.5946 52.3494C87.8971 49.8726 85.7061 44.7866 84.8118 39.8126L84.8115 39.811C84.6473 38.9058 84.527 38.0053 84.4403 37.1236M93.1959 53.2665C87.0521 50.5956 84.7477 45.1074 83.8276 39.9896C83.6525 39.0246 83.5263 38.0679 83.4367 37.1355M84.4403 37.1236C84.5881 35.0813 84.6002 33.1739 84.5683 31.5357M84.4403 37.1236C84.4382 37.1522 84.4361 37.1808 84.434 37.2094L83.4367 37.1355M84.4403 37.1236C84.4375 37.0957 84.4348 37.0678 84.4321 37.0399L83.4367 37.1355M84.5683 31.5357H83.5681M84.5683 31.5357C84.5615 31.19 84.5528 30.8562 84.543 30.5357H91.5714C93.8189 30.5357 95.6429 28.7117 95.6429 26.4643C95.6429 24.2169 93.8189 22.3929 91.5714 22.3929H84.4286L83.5681 31.5357M83.5681 31.5357C83.6005 33.1812 83.5881 35.093 83.4367 37.1355M41.9585 76.5572L41.6919 76.3571H41.3585H14.1776C8.00393 76.3571 3 71.3532 3 65.1795V65.1013V65.0228V64.9441V64.865V64.7856V64.706V64.626V64.5458V64.4652V64.3844V64.3033V64.2219V64.1403V64.0583V63.9761V63.8935V63.8107V63.7277V63.6443V63.5607V63.4767V63.3926V63.3081V63.2234V63.1384V63.0531V62.9676V62.8818V62.7957V62.7094V62.6228V62.5359V62.4488V62.3614V62.2737V62.1858V62.0977V62.0093V61.9206V61.8317V61.7425V61.6531V61.5634V61.4735V61.3833V61.2929V61.2023V61.1114V61.0202V60.9288V60.8372V60.7453V60.6532V60.5609V60.4683V60.3755V60.2824V60.1892V60.0957V60.0019V59.9079V59.8138V59.7193V59.6247V59.5298V59.4347V59.3394V59.2439V59.1481V59.0521V58.956V58.8596V58.7629V58.6661V58.569V58.4718V58.3743V58.2766V58.1788V58.0807V57.9824V57.8839V57.7852V57.6863V57.5872V57.4879V57.3884V57.2887V57.1888V57.0887V56.9884V56.8879V56.7872V56.6864V56.5853V56.4841V56.3827V56.2811V56.1793V56.0773V55.9751V55.8728V55.7703V55.6676V55.5647V55.4617V55.3584V55.2551V55.1515V55.0477V54.9438V54.8397V54.7355V54.6311V54.5265V54.4217V54.3168V54.2118V54.1065V54.0011V53.8956V53.7899V53.684V53.578V53.4718V53.3655V53.259V53.1524V53.0456V52.9387V52.8316V52.7244V52.617V52.5095V52.4018V52.2941V52.1861V52.078V51.9698V51.8615V51.753V51.6444V51.5357V51.4268V51.3178V51.2086V51.0994V50.99V50.8804V50.7708V50.661V50.5511V50.4411V50.331V50.2207V50.1104V49.9999V49.8893V49.7786V49.6677V49.5568V49.4457V49.3346V49.2233V49.1119V49.0004V48.8888V48.7771V48.6654V48.5535V48.4415V48.3294V48.2172V48.1049V47.9925V47.88V47.7674V47.6548V47.542V47.4292V47.3162V47.2032V47.0901V46.9769V46.8636V46.7502V46.6368V46.5233V46.4097V46.296V46.1822V46.0684V45.9545V45.8405V45.7264V45.6123V45.4981V45.3839V45.2695V45.1551V45.0406V44.9261V44.8115V44.6969V44.5822V44.4674V44.3526V44.2377V44.1227V44.0077V43.8927V43.7775V43.6624V43.5472V43.4319V43.3166V43.2013V43.0859V42.9704V42.8549V42.7394V42.6238V42.5082V42.3926V42.2769V42.1612V42.0454V41.9296V41.8138V41.698V41.5821V41.4662V41.3502V41.2343V41.1183V41.0023V40.8862V40.7702V40.6541V40.538V40.4218V40.3057V40.1896V40.0734V39.9572V39.841V39.7248V39.6086V39.4923V39.3761V39.2599V39.1436V39.0274V38.9111V38.7948V38.6786V38.5623V38.446V38.3298V38.2135V38.0973V37.981V37.8648V37.7486V37.6324V37.5161V37.3999V37.2838V37.1676V37.0514V36.9353V36.8192V36.7031V36.587V36.4709V36.3549V36.2389V36.1229V36.0069V35.891V35.7751V35.6592V35.5433V35.4275V35.3117V35.1959V35.0802V34.9645V34.8489V34.7333V34.6177V34.5022V34.3867V34.2713V34.1559V34.0405V33.9252V33.81V33.6948V33.5796V33.4645V33.3494V33.2344V33.1195V33.0046V32.8898V32.775V32.6603V32.5456V32.431V32.3165V32.202V32.0876V31.9733V31.859V31.7448V31.6307V31.5166V31.4027V31.2888V31.1749V31.0612V30.9475V30.8339V30.7203V30.6069V30.4935V30.3803V30.2671V30.154V30.0409V29.928V29.8151V29.7024V29.5897V29.4771V29.3647V29.2523V29.14V29.0278V28.9157V28.8037V28.6918V28.58V28.4683V28.3567V28.2452V28.1338V28.0226V27.9114V27.8004V27.6894V27.5786V27.4679V27.3573V27.2468V27.1364V27.0262V26.916V26.806V26.6961V26.5863V26.4767V26.3672V26.2578V26.1485V26.0394V25.9304V25.8215V25.7127V25.6041V25.4956V25.3873V25.2791V25.171V25.0631V24.9553V24.8476V24.7401V24.6328V24.5256V24.4185V24.3116V24.2048V24.0981V23.9917V23.8853V23.7792V23.6731V23.5673V23.4616V23.356V23.2506V23.1454V23.0403V22.9354V22.8307V22.7261V22.6217V22.5174V22.4133V22.3094V22.2057V22.1021V21.9987V21.8955V21.7924V21.6895V21.5868V21.4843V21.382V21.2798V21.1779V21.0761V20.9745V20.873V20.7718V20.6708V20.5699V20.4692V20.3688V20.2685V20.1684V20.0685V19.9688V19.8693V19.77V19.6709V19.572V19.4733V19.3748V19.2765V19.1784V19.0805V18.9828V18.8853V18.7881V18.691V18.5942V18.4976V18.4012V18.305V18.209V18.1133V18.0177V17.9224V17.8273V17.7325V17.6378V17.5434V17.4492V17.3552V17.2615V17.168V17.0747V16.9817V16.8888V16.7963V16.7039V16.6118V16.52V16.4283V16.3369V16.2458V16.1549V16.0642V15.9738V15.8836V15.7937V15.704V15.6146V15.5255V15.4365V15.3479V15.2595V15.1713V15.0834V14.9958V14.9084V14.8212V14.7344V14.6478V14.5614V14.4754V14.3896V14.304V14.2188V14.1338V14.049V13.9646V13.8804V13.7965V13.7128V13.6295V13.5464V13.4636V13.3811V13.2988V13.2169V13.1352V13.0538V12.9727V12.8919V12.8114V12.7311V12.6512V12.5715V12.4922V12.4131V12.3343V12.2558V12.1776C3 6.00393 8.00393 1 14.1776 1H103.822C109.996 1 115 6.00393 115 12.1776V65.1795C115 71.3532 109.996 76.3571 103.822 76.3571H76.6415H76.3081L76.0415 76.5572L60.8429 87.9571C59.749 88.7775 58.251 88.7775 57.1572 87.9572L41.9585 76.5572ZM36.8585 41.75L38.6429 36.3945L40.4273 41.75H36.8585Z" stroke="#1C565E" stroke-width="2"/>
</g>
<defs>
<filter id="filter0_d_44_400" x="0" y="0" width="116" height="91.0724" filterUnits="userSpaceOnUse" color-interpolation-filters="sRGB">
<feFlood flood-opacity="0" result="BackgroundImageFix"/>
<feColorMatrix in="SourceAlpha" type="matrix" values="0 0 0 0 0 0 0 0 0 0 0 0 0 0 0 0 0 0 127 0" result="hardAlpha"/>
<feOffset dx="-2" dy="1.5"/>
<feComposite in2="hardAlpha" operator="out"/>
<feColorMatrix type="matrix" values="0 0 0 0 0.207843 0 0 0 0 0.309804 0 0 0 0 0.321569 0 0 0 0.78 0"/>
<feBlend mode="normal" in2="BackgroundImageFix" result="effect1_dropShadow_44_400"/>
<feBlend mode="normal" in="SourceGraphic" in2="effect1_dropShadow_44_400" result="shape"/>
</filter>
<linearGradient id="paint0_linear_44_400" x1="10" y1="6" x2="109" y2="82.5" gradientUnits="userSpaceOnUse">
<stop stop-color="#0775DB"/>
<stop offset="1" stop-color="#28B6CA"/>
</linearGradient>
</defs>
</svg>
