<svg width="97" height="97" viewBox="0 0 97 97" fill="none" xmlns="http://www.w3.org/2000/svg">
    <g filter="url(#filter0_d_44_389)">
        <path fill-rule="evenodd" clip-rule="evenodd"
            d="M13.7738 11.7736C14.7499 10.7974 16.0739 10.249 17.4544 10.249H46.4547V44.4354H12.2492V15.4542C12.2492 14.0737 12.7976 12.7498 13.7738 11.7736ZM12.2492 50.5454V79.5458C12.2492 80.9263 12.7976 82.2502 13.7738 83.2264C14.7499 84.2026 16.0739 84.751 17.4544 84.751H46.4547V50.5454H12.2492ZM52.5647 50.5454V84.751H81.5268C82.9073 84.751 84.2313 84.2026 85.2074 83.2264C86.1836 82.2502 86.732 80.9263 86.732 79.5458V50.5454H52.5647ZM86.732 44.4354V15.4542C86.732 14.0737 86.1836 12.7498 85.2074 11.7736C84.2313 10.7974 82.9073 10.249 81.5268 10.249H52.5647V44.4354H86.732ZM17.4544 1.49902C13.7533 1.49902 10.2037 2.9693 7.58659 5.58641C4.96948 8.20352 3.49921 11.7531 3.49921 15.4542V79.5458C3.49921 83.2469 4.96948 86.7965 7.58659 89.4136C10.2037 92.0307 13.7533 93.501 17.4544 93.501H81.5268C85.2279 93.501 88.7775 92.0307 91.3946 89.4136C94.0117 86.7965 95.482 83.2469 95.482 79.5458V15.4542C95.482 11.7531 94.0117 8.20352 91.3946 5.58641C88.7775 2.9693 85.2279 1.49902 81.5268 1.49902H17.4544ZM31.1752 21.0203C31.1752 19.7505 30.1458 18.7211 28.8759 18.7211C27.6061 18.7211 26.5767 19.7505 26.5767 21.0203V25.113H22.4839C21.2141 25.113 20.1847 26.1424 20.1847 27.4122C20.1847 28.6821 21.2141 29.7115 22.4839 29.7115H26.5767V33.8194C26.5767 35.0893 27.6061 36.1187 28.8759 36.1187C30.1458 36.1187 31.1752 35.0893 31.1752 33.8194V29.7115H35.2831C36.5529 29.7115 37.5823 28.6821 37.5823 27.4122C37.5823 26.1424 36.5529 25.113 35.2831 25.113H31.1752V21.0203ZM25.2136 61.6546C24.3156 60.7567 22.8598 60.7567 21.9619 61.6546C21.064 62.5525 21.064 64.0083 21.9619 64.9063L25.4788 68.4231L21.9619 71.9399C21.064 72.8379 21.064 74.2937 21.9619 75.1916C22.8598 76.0895 24.3156 76.0895 25.2136 75.1916L28.7304 71.6747L32.2472 75.1916C33.1451 76.0895 34.6009 76.0895 35.4988 75.1916C36.3967 74.2937 36.3967 72.8379 35.4988 71.9399L31.982 68.4231L35.4988 64.9063C36.3967 64.0083 36.3967 62.5525 35.4988 61.6546C34.6009 60.7567 33.1451 60.7567 32.2472 61.6546L28.7304 65.1715L25.2136 61.6546ZM63.2633 25.111C61.9934 25.111 60.964 26.1405 60.964 27.4103C60.964 28.6801 61.9934 29.7095 63.2633 29.7095H77.7945C79.0644 29.7095 80.0938 28.6801 80.0938 27.4103C80.0938 26.1405 79.0644 25.111 77.7945 25.111H63.2633ZM60.8489 63.1157C60.8489 61.8458 61.8783 60.8164 63.1482 60.8164H77.6794C78.9492 60.8164 79.9787 61.8458 79.9787 63.1157C79.9787 64.3855 78.9492 65.4149 77.6794 65.4149H63.1482C61.8783 65.4149 60.8489 64.3855 60.8489 63.1157ZM63.1482 69.7835C61.8783 69.7835 60.8489 70.8129 60.8489 72.0828C60.8489 73.3526 61.8783 74.382 63.1482 74.382H77.6794C78.9492 74.382 79.9787 73.3526 79.9787 72.0828C79.9787 70.8129 78.9492 69.7835 77.6794 69.7835H63.1482Z"
            fill="url(#paint0_linear_44_389)" />
        <path
            d="M13.7738 11.7736L14.2193 12.2191H14.2193L13.7738 11.7736ZM46.4547 10.249H47.0847V9.61902H46.4547V10.249ZM46.4547 44.4354V45.0654H47.0847V44.4354H46.4547ZM12.2492 44.4354H11.6192V45.0654H12.2492V44.4354ZM12.2492 50.5454V49.9154H11.6192V50.5454H12.2492ZM13.7738 83.2264L14.2193 82.7809H14.2193L13.7738 83.2264ZM46.4547 84.751V85.381H47.0847V84.751H46.4547ZM46.4547 50.5454H47.0847V49.9154H46.4547V50.5454ZM52.5647 50.5454V49.9154H51.9347V50.5454H52.5647ZM52.5647 84.751H51.9347V85.381H52.5647V84.751ZM86.732 50.5454H87.362V49.9154H86.732V50.5454ZM86.732 44.4354V45.0654H87.362V44.4354H86.732ZM85.2074 11.7736L84.7619 12.2191L85.2074 11.7736ZM52.5647 10.249V9.61902H51.9347V10.249H52.5647ZM52.5647 44.4354H51.9347V45.0654H52.5647V44.4354ZM7.58659 5.58641L8.03207 6.03188H8.03207L7.58659 5.58641ZM7.58659 89.4136L7.14111 89.8591H7.14111L7.58659 89.4136ZM91.3946 5.58641L90.9491 6.03188V6.03188L91.3946 5.58641ZM26.5767 25.113V25.743H27.2067V25.113H26.5767ZM26.5767 29.7115H27.2067V29.0815H26.5767V29.7115ZM31.1752 29.7115V29.0815H30.5452V29.7115H31.1752ZM31.1752 25.113H30.5452V25.743H31.1752V25.113ZM21.9619 61.6546L22.4074 62.1001V62.1001L21.9619 61.6546ZM25.2136 61.6546L25.659 61.2092L25.2136 61.6546ZM21.9619 64.9063L21.5164 65.3517L21.9619 64.9063ZM25.4788 68.4231L25.9242 68.8686L26.3697 68.4231L25.9242 67.9776L25.4788 68.4231ZM21.9619 71.9399L22.4074 72.3854L21.9619 71.9399ZM21.9619 75.1916L21.5165 75.6371H21.5165L21.9619 75.1916ZM25.2136 75.1916L25.659 75.637V75.637L25.2136 75.1916ZM28.7304 71.6747L29.1758 71.2293L28.7304 70.7838L28.2849 71.2293L28.7304 71.6747ZM32.2472 75.1916L31.8017 75.637L32.2472 75.1916ZM35.4988 75.1916L35.9443 75.6371L35.4988 75.1916ZM35.4988 71.9399L35.0533 72.3854L35.4988 71.9399ZM31.982 68.4231L31.5365 67.9776L31.091 68.4231L31.5365 68.8686L31.982 68.4231ZM35.4988 64.9063L35.9443 65.3517H35.9443L35.4988 64.9063ZM35.4988 61.6546L35.9443 61.2092V61.2092L35.4988 61.6546ZM32.2472 61.6546L31.8017 61.2092L32.2472 61.6546ZM28.7304 65.1715L28.2849 65.617L28.7304 66.0624L29.1758 65.617L28.7304 65.1715ZM17.4544 9.61902C15.9068 9.61902 14.4226 10.2338 13.3283 11.3281L14.2193 12.2191C15.0773 11.3611 16.241 10.879 17.4544 10.879V9.61902ZM46.4547 9.61902H17.4544V10.879H46.4547V9.61902ZM47.0847 44.4354V10.249H45.8247V44.4354H47.0847ZM12.2492 45.0654H46.4547V43.8054H12.2492V45.0654ZM11.6192 15.4542V44.4354H12.8792V15.4542H11.6192ZM13.3283 11.3281C12.234 12.4224 11.6192 13.9066 11.6192 15.4542H12.8792C12.8792 14.2408 13.3612 13.0771 14.2193 12.2191L13.3283 11.3281ZM11.6192 50.5454V79.5458H12.8792V50.5454H11.6192ZM11.6192 79.5458C11.6192 81.0934 12.234 82.5776 13.3283 83.6719L14.2193 82.7809C13.3612 81.9229 12.8792 80.7592 12.8792 79.5458H11.6192ZM13.3283 83.6719C14.4226 84.7662 15.9068 85.381 17.4544 85.381V84.121C16.241 84.121 15.0773 83.6389 14.2193 82.7809L13.3283 83.6719ZM17.4544 85.381H46.4547V84.121H17.4544V85.381ZM47.0847 84.751V50.5454H45.8247V84.751H47.0847ZM46.4547 49.9154H12.2492V51.1754H46.4547V49.9154ZM51.9347 50.5454V84.751H53.1947V50.5454H51.9347ZM52.5647 85.381H81.5268V84.121H52.5647V85.381ZM81.5268 85.381C83.0744 85.381 84.5586 84.7662 85.6529 83.6719L84.7619 82.7809C83.9039 83.6389 82.7402 84.121 81.5268 84.121V85.381ZM85.6529 83.6719C86.7472 82.5776 87.362 81.0934 87.362 79.5458H86.102C86.102 80.7592 85.62 81.9229 84.7619 82.7809L85.6529 83.6719ZM87.362 79.5458V50.5454H86.102V79.5458H87.362ZM86.732 49.9154H52.5647V51.1754H86.732V49.9154ZM87.362 44.4354V15.4542H86.102V44.4354H87.362ZM87.362 15.4542C87.362 13.9066 86.7472 12.4224 85.6529 11.3281L84.7619 12.2191C85.62 13.0771 86.102 14.2408 86.102 15.4542H87.362ZM85.6529 11.3281C84.5586 10.2338 83.0744 9.61902 81.5268 9.61902V10.879C82.7402 10.879 83.9039 11.3611 84.7619 12.2191L85.6529 11.3281ZM81.5268 9.61902H52.5647V10.879H81.5268V9.61902ZM51.9347 10.249V44.4354H53.1947V10.249H51.9347ZM52.5647 45.0654H86.732V43.8054H52.5647V45.0654ZM8.03207 6.03188C10.531 3.53292 13.9203 2.12902 17.4544 2.12902V0.869023C13.5862 0.869023 9.87637 2.40567 7.14111 5.14093L8.03207 6.03188ZM4.12921 15.4542C4.12921 11.9202 5.53311 8.53084 8.03207 6.03188L7.14111 5.14093C4.40586 7.87619 2.86921 11.586 2.86921 15.4542H4.12921ZM4.12921 79.5458V15.4542H2.86921V79.5458H4.12921ZM8.03207 88.9681C5.53311 86.4691 4.12921 83.0798 4.12921 79.5458H2.86921C2.86921 83.414 4.40585 87.1238 7.14111 89.8591L8.03207 88.9681ZM17.4544 92.871C13.9204 92.871 10.531 91.4671 8.03207 88.9681L7.14111 89.8591C9.87638 92.5943 13.5862 94.131 17.4544 94.131V92.871ZM81.5268 92.871H17.4544V94.131H81.5268V92.871ZM90.9491 88.9681C88.4502 91.4671 85.0609 92.871 81.5268 92.871V94.131C85.395 94.131 89.1048 92.5943 91.8401 89.8591L90.9491 88.9681ZM94.852 79.5458C94.852 83.0798 93.4481 86.4691 90.9491 88.9681L91.8401 89.8591C94.5753 87.1238 96.112 83.414 96.112 79.5458H94.852ZM94.852 15.4542V79.5458H96.112V15.4542H94.852ZM90.9491 6.03188C93.4481 8.53084 94.852 11.9202 94.852 15.4542H96.112C96.112 11.586 94.5753 7.87619 91.8401 5.14093L90.9491 6.03188ZM81.5268 2.12902C85.0609 2.12902 88.4502 3.53292 90.9491 6.03188L91.8401 5.14093C89.1048 2.40567 85.395 0.869023 81.5268 0.869023V2.12902ZM17.4544 2.12902H81.5268V0.869023H17.4544V2.12902ZM28.8759 19.3511C29.7978 19.3511 30.5452 20.0984 30.5452 21.0203H31.8052C31.8052 19.4025 30.4937 18.0911 28.8759 18.0911V19.3511ZM27.2067 21.0203C27.2067 20.0984 27.954 19.3511 28.8759 19.3511V18.0911C27.2582 18.0911 25.9467 19.4025 25.9467 21.0203H27.2067ZM27.2067 25.113V21.0203H25.9467V25.113H27.2067ZM22.4839 25.743H26.5767V24.483H22.4839V25.743ZM20.8147 27.4122C20.8147 26.4903 21.562 25.743 22.4839 25.743V24.483C20.8662 24.483 19.5547 25.7944 19.5547 27.4122H20.8147ZM22.4839 29.0815C21.562 29.0815 20.8147 28.3341 20.8147 27.4122H19.5547C19.5547 29.03 20.8662 30.3415 22.4839 30.3415V29.0815ZM26.5767 29.0815H22.4839V30.3415H26.5767V29.0815ZM27.2067 33.8194V29.7115H25.9467V33.8194H27.2067ZM28.8759 35.4887C27.954 35.4887 27.2067 34.7413 27.2067 33.8194H25.9467C25.9467 35.4372 27.2582 36.7487 28.8759 36.7487V35.4887ZM30.5452 33.8194C30.5452 34.7413 29.7978 35.4887 28.8759 35.4887V36.7487C30.4937 36.7487 31.8052 35.4372 31.8052 33.8194H30.5452ZM30.5452 29.7115V33.8194H31.8052V29.7115H30.5452ZM35.2831 29.0815H31.1752V30.3415H35.2831V29.0815ZM36.9523 27.4122C36.9523 28.3341 36.205 29.0815 35.2831 29.0815V30.3415C36.9008 30.3415 38.2123 29.03 38.2123 27.4122H36.9523ZM35.2831 25.743C36.205 25.743 36.9523 26.4903 36.9523 27.4122H38.2123C38.2123 25.7944 36.9008 24.483 35.2831 24.483V25.743ZM31.1752 25.743H35.2831V24.483H31.1752V25.743ZM30.5452 21.0203V25.113H31.8052V21.0203H30.5452ZM22.4074 62.1001C23.0593 61.4482 24.1162 61.4482 24.7681 62.1001L25.659 61.2092C24.5151 60.0652 22.6604 60.0652 21.5165 61.2092L22.4074 62.1001ZM22.4074 64.4608C21.7555 63.8089 21.7555 62.752 22.4074 62.1001L21.5165 61.2092C20.3725 62.3531 20.3725 64.2078 21.5164 65.3517L22.4074 64.4608ZM25.9242 67.9776L22.4074 64.4608L21.5164 65.3517L25.0333 68.8686L25.9242 67.9776ZM22.4074 72.3854L25.9242 68.8686L25.0333 67.9776L21.5164 71.4945L22.4074 72.3854ZM22.4074 74.7461C21.7555 74.0942 21.7555 73.0373 22.4074 72.3854L21.5164 71.4945C20.3725 72.6384 20.3725 74.4931 21.5165 75.6371L22.4074 74.7461ZM24.7681 74.7461C24.1162 75.398 23.0593 75.398 22.4074 74.7461L21.5165 75.6371C22.6604 76.781 24.5151 76.781 25.659 75.637L24.7681 74.7461ZM28.2849 71.2293L24.7681 74.7461L25.659 75.637L29.1758 72.1202L28.2849 71.2293ZM32.6927 74.7461L29.1758 71.2293L28.2849 72.1202L31.8017 75.637L32.6927 74.7461ZM35.0533 74.7461C34.4014 75.398 33.3445 75.398 32.6927 74.7461L31.8017 75.637C32.9456 76.781 34.8003 76.781 35.9443 75.6371L35.0533 74.7461ZM35.0533 72.3854C35.7052 73.0373 35.7052 74.0942 35.0533 74.7461L35.9443 75.6371C37.0882 74.4931 37.0882 72.6384 35.9443 71.4945L35.0533 72.3854ZM31.5365 68.8686L35.0533 72.3854L35.9443 71.4945L32.4275 67.9776L31.5365 68.8686ZM35.0533 64.4608L31.5365 67.9776L32.4275 68.8686L35.9443 65.3517L35.0533 64.4608ZM35.0533 62.1001C35.7052 62.752 35.7052 63.8089 35.0533 64.4608L35.9443 65.3517C37.0882 64.2078 37.0882 62.3531 35.9443 61.2092L35.0533 62.1001ZM32.6927 62.1001C33.3445 61.4482 34.4014 61.4482 35.0533 62.1001L35.9443 61.2092C34.8003 60.0652 32.9456 60.0652 31.8017 61.2092L32.6927 62.1001ZM29.1758 65.617L32.6927 62.1001L31.8017 61.2092L28.2849 64.726L29.1758 65.617ZM24.7681 62.1001L28.2849 65.617L29.1758 64.726L25.659 61.2092L24.7681 62.1001ZM61.594 27.4103C61.594 26.4884 62.3414 25.741 63.2633 25.741V24.481C61.6455 24.481 60.334 25.7925 60.334 27.4103H61.594ZM63.2633 29.0795C62.3414 29.0795 61.594 28.3322 61.594 27.4103H60.334C60.334 29.0281 61.6455 30.3395 63.2633 30.3395V29.0795ZM77.7945 29.0795H63.2633V30.3395H77.7945V29.0795ZM79.4638 27.4103C79.4638 28.3322 78.7164 29.0795 77.7945 29.0795V30.3395C79.4123 30.3395 80.7238 29.0281 80.7238 27.4103H79.4638ZM77.7945 25.741C78.7164 25.741 79.4638 26.4884 79.4638 27.4103H80.7238C80.7238 25.7925 79.4123 24.481 77.7945 24.481V25.741ZM63.2633 25.741H77.7945V24.481H63.2633V25.741ZM63.1482 60.1864C61.5304 60.1864 60.2189 61.4979 60.2189 63.1157H61.4789C61.4789 62.1938 62.2263 61.4464 63.1482 61.4464V60.1864ZM77.6794 60.1864H63.1482V61.4464H77.6794V60.1864ZM80.6087 63.1157C80.6087 61.4979 79.2972 60.1864 77.6794 60.1864V61.4464C78.6013 61.4464 79.3487 62.1938 79.3487 63.1157H80.6087ZM77.6794 66.0449C79.2972 66.0449 80.6087 64.7335 80.6087 63.1157H79.3487C79.3487 64.0376 78.6013 64.7849 77.6794 64.7849V66.0449ZM63.1482 66.0449H77.6794V64.7849H63.1482V66.0449ZM60.2189 63.1157C60.2189 64.7335 61.5304 66.0449 63.1482 66.0449V64.7849C62.2263 64.7849 61.4789 64.0376 61.4789 63.1157H60.2189ZM61.4789 72.0828C61.4789 71.1609 62.2263 70.4135 63.1482 70.4135V69.1535C61.5304 69.1535 60.2189 70.465 60.2189 72.0828H61.4789ZM63.1482 73.752C62.2263 73.752 61.4789 73.0047 61.4789 72.0828H60.2189C60.2189 73.7006 61.5304 75.012 63.1482 75.012V73.752ZM77.6794 73.752H63.1482V75.012H77.6794V73.752ZM79.3487 72.0828C79.3487 73.0047 78.6013 73.752 77.6794 73.752V75.012C79.2972 75.012 80.6087 73.7006 80.6087 72.0828H79.3487ZM77.6794 70.4135C78.6013 70.4135 79.3487 71.1609 79.3487 72.0828H80.6087C80.6087 70.465 79.2972 69.1535 77.6794 69.1535V70.4135ZM63.1482 70.4135H77.6794V69.1535H63.1482V70.4135Z"
            fill="#684756" />
    </g>
    <defs>
        <filter id="filter0_d_44_389" x="0.869202" y="0.869019" width="95.2427" height="95.262"
            filterUnits="userSpaceOnUse" color-interpolation-filters="sRGB">
            <feFlood flood-opacity="0" result="BackgroundImageFix" />
            <feColorMatrix in="SourceAlpha" type="matrix" values="0 0 0 0 0 0 0 0 0 0 0 0 0 0 0 0 0 0 127 0"
                result="hardAlpha" />
            <feOffset dx="-2" dy="2" />
            <feComposite in2="hardAlpha" operator="out" />
            <feColorMatrix type="matrix" values="0 0 0 0 0.283333 0 0 0 0 0.259699 0 0 0 0 0.175903 0 0 0 1 0" />
            <feBlend mode="normal" in2="BackgroundImageFix" result="effect1_dropShadow_44_389" />
            <feBlend mode="normal" in="SourceGraphic" in2="effect1_dropShadow_44_389" result="shape" />
        </filter>
        <linearGradient id="paint0_linear_44_389" x1="93.4149" y1="92.4672" x2="9.68189" y2="4.10077"
            gradientUnits="userSpaceOnUse">
            <stop stop-color="#CC2BC6" />
            <stop offset="1" stop-color="#E9A219" />
        </linearGradient>
    </defs>
</svg>