<svg width="95" height="104" viewBox="0 0 95 104" fill="none" xmlns="http://www.w3.org/2000/svg">
<g filter="url(#filter0_d_44_432)">
<mask id="path-1-outside-1_44_432" maskUnits="userSpaceOnUse" x="2" y="0" width="93" height="102" fill="black">
<rect fill="white" x="2" width="93" height="102"/>
<path fill-rule="evenodd" clip-rule="evenodd" d="M91.0856 26.5865C94.7423 32.9217 93.1263 41.4024 86.5321 50.465C86.4359 50.5959 86.3305 50.7269 86.2253 50.8575C86.1423 50.9607 86.0593 51.0637 85.9812 51.1665C92.7212 60.1832 94.9242 69.1081 91.0854 75.758C88.9103 79.5262 83.9882 84.0158 72.8947 84.0158C71.095 84.0158 69.1936 83.8517 67.2513 83.6141C62.8127 93.9683 56.1826 100.346 48.5001 100.346C40.8175 100.346 34.1875 93.9683 29.7486 83.6156C27.8063 83.8517 25.9051 84.0173 24.1053 84.0173C13.0102 84.0173 8.08966 79.5262 5.91452 75.7595C2.07576 69.1096 4.28048 60.1847 11.0187 51.1697C10.9376 51.0616 10.8514 50.9542 10.7651 50.8467C10.6631 50.7198 10.5612 50.5929 10.468 50.465C3.87384 41.4006 2.25767 32.9216 5.91452 26.5865C8.08966 22.8198 13.0102 18.3304 24.1087 18.3287C25.9068 18.3287 27.8082 18.4927 29.7488 18.7303C34.1875 8.3777 40.8193 2 48.5001 2C56.1826 2 62.8127 8.3777 67.2515 18.7303C69.1938 18.4943 71.095 18.3287 72.8949 18.3287C83.9899 18.3287 88.9105 22.8198 91.0856 26.5865ZM86.8271 29.0451C84.5702 25.1374 79.5317 23.246 72.8949 23.246C71.6671 23.246 70.3788 23.3198 69.0494 23.4494C70.441 27.6718 71.49 32.4054 72.1768 37.5046C76.2469 40.6467 79.8217 43.9217 82.7819 47.2359C87.7516 40.2729 89.5005 33.6739 86.8271 29.0451ZM79.6413 51.173C77.6694 48.911 75.4057 46.6458 72.8505 44.4248C72.9899 46.6295 73.0865 48.8684 73.0865 51.173C73.0865 53.4776 72.9899 55.7165 72.8505 57.9212C75.4059 55.6986 77.6694 53.4332 79.6413 51.173ZM60.7933 29.8796C62.7898 31.0334 64.6797 32.2349 66.5187 33.4577C65.8729 30.1368 65.045 27.0454 64.0731 24.2099C61.1375 24.7852 58.0462 25.6294 54.8532 26.7275C56.8399 27.7109 58.8247 28.7436 60.7933 29.8796ZM62.257 19.5695C58.71 11.751 53.8584 6.9173 48.5001 6.9173C43.1419 6.9173 38.2901 11.751 34.7431 19.568C39.1605 20.4973 43.7925 21.9446 48.5001 23.8689C53.2076 21.9446 57.8397 20.4973 62.257 19.5695ZM42.1469 26.7275C38.954 25.6294 35.8626 24.7852 32.927 24.2099C31.9566 27.0454 31.1272 30.1368 30.4816 33.4577C32.3206 32.2366 34.2105 31.0334 36.2053 29.8796C38.1737 28.7436 40.1587 27.7092 42.1469 26.7275ZM10.173 73.3008C12.4299 77.2086 17.4686 79.1 24.1053 79.1C25.333 79.1 26.6213 79.0262 27.9506 78.8983C26.5606 74.6775 25.5115 69.9438 24.8248 64.8479C20.8139 61.7419 17.267 58.4423 14.2461 55.0707C9.25348 62.0468 7.49478 68.6623 10.173 73.3008ZM17.3588 51.173C19.3307 53.435 21.5944 55.7002 24.1496 57.9212C24.0102 55.7165 23.9136 53.4776 23.9136 51.173C23.9136 48.8684 24.0102 46.6295 24.1496 44.4248C21.5942 46.6474 19.3307 48.9128 17.3588 51.173ZM14.2182 47.2342C17.1784 43.9217 20.7517 40.645 24.8233 37.5029C25.51 32.4052 26.5606 27.67 27.9506 23.4477C26.6213 23.318 25.3329 23.246 24.1053 23.246C17.4686 23.2477 12.4284 25.1392 10.173 29.0451C7.50112 33.6739 9.25003 40.2729 14.2182 47.2342ZM36.2051 72.4666C34.2301 71.3259 32.3319 70.1179 30.4782 68.8803C31.1257 72.2042 31.9551 75.2989 32.9268 78.1363C35.8624 77.561 38.9538 76.7168 42.1468 75.6187C40.1602 74.6352 38.1753 73.6026 36.2051 72.4666ZM34.7431 82.7764C38.2901 90.5949 43.1419 95.4287 48.5001 95.4287C53.8584 95.4287 58.71 90.5949 62.257 82.7764C57.8397 81.8487 53.2076 80.4014 48.5001 78.4771C43.7927 80.4014 39.1605 81.8487 34.7431 82.7764ZM54.8516 75.617C58.0446 76.7151 61.1342 77.5593 64.0716 78.1346C65.0435 75.2973 65.8745 72.2027 66.5204 68.8785C64.6666 70.1161 62.7702 71.3241 60.7918 72.4649C58.8231 73.6009 56.8399 74.635 54.8516 75.617ZM58.3347 68.2064C61.626 66.3068 64.6862 64.2676 67.5333 62.1614C67.9332 58.6423 68.1693 54.9739 68.1693 51.173C68.1693 47.3721 67.9332 43.7037 67.5333 40.1846C64.6862 38.0784 61.626 36.0392 58.3347 34.1395C55.0433 32.2383 51.7472 30.5976 48.5001 29.1846C45.2529 30.5976 41.9568 32.2399 38.6655 34.1395C35.3741 36.0392 32.3139 38.0784 29.4668 40.1846C29.0669 43.7037 28.8309 47.3721 28.8309 51.173C28.8309 54.9739 29.0669 58.6423 29.4668 62.1614C32.3139 64.2676 35.3741 66.3068 38.6655 68.2064C41.9568 70.1077 45.2529 71.7484 48.5001 73.1614C51.7472 71.7486 55.0433 70.1061 58.3347 68.2064ZM72.8949 79.1C79.5315 79.1 84.5717 77.2068 86.8271 73.3008C89.5038 68.6623 87.7466 62.0485 82.754 55.0707C79.7332 58.4423 76.1862 61.7417 72.1753 64.8479C71.4886 69.9456 70.4395 74.6777 69.0496 78.8983C70.3788 79.028 71.6673 79.1 72.8949 79.1ZM36.2068 51.173C36.2068 44.3954 41.7224 38.8798 48.5 38.8798C55.2777 38.8798 60.7933 44.3954 60.7933 51.173C60.7933 57.9506 55.2777 63.4663 48.5 63.4663C41.7224 63.4663 36.2068 57.9506 36.2068 51.173ZM41.1241 51.173C41.1241 55.2396 44.4335 58.549 48.5 58.549C52.5666 58.549 55.876 55.2396 55.876 51.173C55.876 47.1064 52.5666 43.7971 48.5 43.7971C44.4335 43.7971 41.1241 47.1064 41.1241 51.173Z"/>
</mask>
<path fill-rule="evenodd" clip-rule="evenodd" d="M91.0856 26.5865C94.7423 32.9217 93.1263 41.4024 86.5321 50.465C86.4359 50.5959 86.3305 50.7269 86.2253 50.8575C86.1423 50.9607 86.0593 51.0637 85.9812 51.1665C92.7212 60.1832 94.9242 69.1081 91.0854 75.758C88.9103 79.5262 83.9882 84.0158 72.8947 84.0158C71.095 84.0158 69.1936 83.8517 67.2513 83.6141C62.8127 93.9683 56.1826 100.346 48.5001 100.346C40.8175 100.346 34.1875 93.9683 29.7486 83.6156C27.8063 83.8517 25.9051 84.0173 24.1053 84.0173C13.0102 84.0173 8.08966 79.5262 5.91452 75.7595C2.07576 69.1096 4.28048 60.1847 11.0187 51.1697C10.9376 51.0616 10.8514 50.9542 10.7651 50.8467C10.6631 50.7198 10.5612 50.5929 10.468 50.465C3.87384 41.4006 2.25767 32.9216 5.91452 26.5865C8.08966 22.8198 13.0102 18.3304 24.1087 18.3287C25.9068 18.3287 27.8082 18.4927 29.7488 18.7303C34.1875 8.3777 40.8193 2 48.5001 2C56.1826 2 62.8127 8.3777 67.2515 18.7303C69.1938 18.4943 71.095 18.3287 72.8949 18.3287C83.9899 18.3287 88.9105 22.8198 91.0856 26.5865ZM86.8271 29.0451C84.5702 25.1374 79.5317 23.246 72.8949 23.246C71.6671 23.246 70.3788 23.3198 69.0494 23.4494C70.441 27.6718 71.49 32.4054 72.1768 37.5046C76.2469 40.6467 79.8217 43.9217 82.7819 47.2359C87.7516 40.2729 89.5005 33.6739 86.8271 29.0451ZM79.6413 51.173C77.6694 48.911 75.4057 46.6458 72.8505 44.4248C72.9899 46.6295 73.0865 48.8684 73.0865 51.173C73.0865 53.4776 72.9899 55.7165 72.8505 57.9212C75.4059 55.6986 77.6694 53.4332 79.6413 51.173ZM60.7933 29.8796C62.7898 31.0334 64.6797 32.2349 66.5187 33.4577C65.8729 30.1368 65.045 27.0454 64.0731 24.2099C61.1375 24.7852 58.0462 25.6294 54.8532 26.7275C56.8399 27.7109 58.8247 28.7436 60.7933 29.8796ZM62.257 19.5695C58.71 11.751 53.8584 6.9173 48.5001 6.9173C43.1419 6.9173 38.2901 11.751 34.7431 19.568C39.1605 20.4973 43.7925 21.9446 48.5001 23.8689C53.2076 21.9446 57.8397 20.4973 62.257 19.5695ZM42.1469 26.7275C38.954 25.6294 35.8626 24.7852 32.927 24.2099C31.9566 27.0454 31.1272 30.1368 30.4816 33.4577C32.3206 32.2366 34.2105 31.0334 36.2053 29.8796C38.1737 28.7436 40.1587 27.7092 42.1469 26.7275ZM10.173 73.3008C12.4299 77.2086 17.4686 79.1 24.1053 79.1C25.333 79.1 26.6213 79.0262 27.9506 78.8983C26.5606 74.6775 25.5115 69.9438 24.8248 64.8479C20.8139 61.7419 17.267 58.4423 14.2461 55.0707C9.25348 62.0468 7.49478 68.6623 10.173 73.3008ZM17.3588 51.173C19.3307 53.435 21.5944 55.7002 24.1496 57.9212C24.0102 55.7165 23.9136 53.4776 23.9136 51.173C23.9136 48.8684 24.0102 46.6295 24.1496 44.4248C21.5942 46.6474 19.3307 48.9128 17.3588 51.173ZM14.2182 47.2342C17.1784 43.9217 20.7517 40.645 24.8233 37.5029C25.51 32.4052 26.5606 27.67 27.9506 23.4477C26.6213 23.318 25.3329 23.246 24.1053 23.246C17.4686 23.2477 12.4284 25.1392 10.173 29.0451C7.50112 33.6739 9.25003 40.2729 14.2182 47.2342ZM36.2051 72.4666C34.2301 71.3259 32.3319 70.1179 30.4782 68.8803C31.1257 72.2042 31.9551 75.2989 32.9268 78.1363C35.8624 77.561 38.9538 76.7168 42.1468 75.6187C40.1602 74.6352 38.1753 73.6026 36.2051 72.4666ZM34.7431 82.7764C38.2901 90.5949 43.1419 95.4287 48.5001 95.4287C53.8584 95.4287 58.71 90.5949 62.257 82.7764C57.8397 81.8487 53.2076 80.4014 48.5001 78.4771C43.7927 80.4014 39.1605 81.8487 34.7431 82.7764ZM54.8516 75.617C58.0446 76.7151 61.1342 77.5593 64.0716 78.1346C65.0435 75.2973 65.8745 72.2027 66.5204 68.8785C64.6666 70.1161 62.7702 71.3241 60.7918 72.4649C58.8231 73.6009 56.8399 74.635 54.8516 75.617ZM58.3347 68.2064C61.626 66.3068 64.6862 64.2676 67.5333 62.1614C67.9332 58.6423 68.1693 54.9739 68.1693 51.173C68.1693 47.3721 67.9332 43.7037 67.5333 40.1846C64.6862 38.0784 61.626 36.0392 58.3347 34.1395C55.0433 32.2383 51.7472 30.5976 48.5001 29.1846C45.2529 30.5976 41.9568 32.2399 38.6655 34.1395C35.3741 36.0392 32.3139 38.0784 29.4668 40.1846C29.0669 43.7037 28.8309 47.3721 28.8309 51.173C28.8309 54.9739 29.0669 58.6423 29.4668 62.1614C32.3139 64.2676 35.3741 66.3068 38.6655 68.2064C41.9568 70.1077 45.2529 71.7484 48.5001 73.1614C51.7472 71.7486 55.0433 70.1061 58.3347 68.2064ZM72.8949 79.1C79.5315 79.1 84.5717 77.2068 86.8271 73.3008C89.5038 68.6623 87.7466 62.0485 82.754 55.0707C79.7332 58.4423 76.1862 61.7417 72.1753 64.8479C71.4886 69.9456 70.4395 74.6777 69.0496 78.8983C70.3788 79.028 71.6673 79.1 72.8949 79.1ZM36.2068 51.173C36.2068 44.3954 41.7224 38.8798 48.5 38.8798C55.2777 38.8798 60.7933 44.3954 60.7933 51.173C60.7933 57.9506 55.2777 63.4663 48.5 63.4663C41.7224 63.4663 36.2068 57.9506 36.2068 51.173ZM41.1241 51.173C41.1241 55.2396 44.4335 58.549 48.5 58.549C52.5666 58.549 55.876 55.2396 55.876 51.173C55.876 47.1064 52.5666 43.7971 48.5 43.7971C44.4335 43.7971 41.1241 47.1064 41.1241 51.173Z" fill="url(#paint0_linear_44_432)"/>
<path d="M86.5321 50.465L87.7411 51.3529L87.745 51.3475L86.5321 50.465ZM91.0856 26.5865L92.3847 25.8367L92.3846 25.8364L91.0856 26.5865ZM86.2253 50.8575L85.0569 49.917V49.917L86.2253 50.8575ZM85.9812 51.1665L84.7874 50.2583L84.1026 51.1586L84.7798 52.0645L85.9812 51.1665ZM91.0854 75.758L89.7863 75.008L89.7863 75.0081L91.0854 75.758ZM67.2513 83.6141L67.4334 82.1252L66.3161 81.9885L65.8726 83.0231L67.2513 83.6141ZM29.7486 83.6156L31.1273 83.0245L30.6841 81.9909L29.5677 82.1266L29.7486 83.6156ZM5.91452 75.7595L4.61544 76.5094L4.61555 76.5096L5.91452 75.7595ZM11.0187 51.1697L12.2202 52.0678L12.8926 51.1682L12.2187 50.2697L11.0187 51.1697ZM10.7651 50.8467L9.59547 51.7859L9.59547 51.7859L10.7651 50.8467ZM10.468 50.465L9.25504 51.3474L9.25594 51.3486L10.468 50.465ZM5.91452 26.5865L4.61555 25.8364L4.61542 25.8366L5.91452 26.5865ZM24.1087 18.3287V16.8287H24.1085L24.1087 18.3287ZM29.7488 18.7303L29.5665 20.2192L30.6839 20.356L31.1275 19.3214L29.7488 18.7303ZM67.2515 18.7303L65.8729 19.3214L66.316 20.3551L67.4325 20.2194L67.2515 18.7303ZM86.8271 29.0451L88.1261 28.2949V28.2949L86.8271 29.0451ZM69.0494 23.4494L68.9038 21.9565L67.0379 22.1385L67.6248 23.919L69.0494 23.4494ZM72.1768 37.5046L70.6903 37.7049L70.7725 38.3155L71.2602 38.692L72.1768 37.5046ZM82.7819 47.2359L81.6632 48.2351L82.9129 49.6343L84.0028 48.1073L82.7819 47.2359ZM72.8505 44.4248L73.8345 43.2927L71.127 40.9393L71.3535 44.5195L72.8505 44.4248ZM79.6413 51.173L80.7716 52.1591L81.6316 51.1734L80.772 50.1873L79.6413 51.173ZM72.8505 57.9212L71.3535 57.8265L71.1269 61.4082L73.8349 59.053L72.8505 57.9212ZM66.5187 33.4577L65.6881 34.7067L68.676 36.6934L67.9911 33.1713L66.5187 33.4577ZM60.7933 29.8796L61.5439 28.5808L61.543 28.5803L60.7933 29.8796ZM64.0731 24.2099L65.4921 23.7235L65.068 22.4864L63.7846 22.7379L64.0731 24.2099ZM54.8532 26.7275L54.3653 25.309L50.9674 26.4777L54.1877 28.0718L54.8532 26.7275ZM62.257 19.5695L62.5653 21.0375L64.3957 20.6531L63.623 18.9498L62.257 19.5695ZM34.7431 19.568L33.3772 18.9482L32.6046 20.6509L34.4343 21.0359L34.7431 19.568ZM48.5001 23.8689L47.9325 25.2574L48.5001 25.4894L49.0676 25.2574L48.5001 23.8689ZM32.927 24.2099L33.2155 22.7379L31.9315 22.4862L31.5078 23.7242L32.927 24.2099ZM42.1469 26.7275L42.8111 28.0725L46.0376 26.4793L42.6348 25.309L42.1469 26.7275ZM30.4816 33.4577L29.0092 33.1714L28.3251 36.6901L31.3113 34.7073L30.4816 33.4577ZM36.2053 29.8796L35.4555 28.5804L35.4542 28.5811L36.2053 29.8796ZM10.173 73.3008L8.87396 74.0509L8.87406 74.0511L10.173 73.3008ZM27.9506 78.8983L28.0943 80.3914L29.9623 80.2116L29.3753 78.4291L27.9506 78.8983ZM24.8248 64.8479L26.3114 64.6476L26.2293 64.0383L25.7432 63.6619L24.8248 64.8479ZM14.2461 55.0707L15.3633 54.0698L14.115 52.6765L13.0263 54.1977L14.2461 55.0707ZM24.1496 57.9212L23.1656 59.0533L25.8731 61.4067L25.6466 57.8265L24.1496 57.9212ZM17.3588 51.173L16.2285 50.1869L15.3685 51.1726L16.2281 52.1587L17.3588 51.173ZM24.1496 44.4248L25.6466 44.5195L25.8732 40.9378L23.1653 43.293L24.1496 44.4248ZM24.8233 37.5029L25.7397 38.6904L26.2276 38.3139L26.3098 37.7032L24.8233 37.5029ZM14.2182 47.2342L12.9973 48.1055L14.0869 49.6322L15.3367 48.2337L14.2182 47.2342ZM27.9506 23.4477L29.3753 23.9167L29.9613 22.1367L28.0962 21.9548L27.9506 23.4477ZM24.1053 23.246V21.746H24.1049L24.1053 23.246ZM10.173 29.0451L8.87399 28.2951L8.87387 28.2953L10.173 29.0451ZM30.4782 68.8803L31.311 67.6327L28.3177 65.6344L29.0058 69.1671L30.4782 68.8803ZM36.2051 72.4666L35.4548 73.7655L35.4558 73.7661L36.2051 72.4666ZM32.9268 78.1363L31.5077 78.6223L31.9316 79.8599L33.2153 79.6083L32.9268 78.1363ZM42.1468 75.6187L42.6346 77.0372L46.0324 75.8686L42.8123 74.2744L42.1468 75.6187ZM34.7431 82.7764L34.4348 81.3085L32.6044 81.6929L33.3771 83.3961L34.7431 82.7764ZM62.257 82.7764L63.623 83.3961L64.3957 81.6929L62.5653 81.3085L62.257 82.7764ZM48.5001 78.4771L49.0676 77.0886L48.5 76.8566L47.9325 77.0886L48.5001 78.4771ZM64.0716 78.1346L63.7833 79.6066L65.0668 79.858L65.4906 78.6207L64.0716 78.1346ZM54.8516 75.617L54.1874 74.272L50.9614 75.8653L54.3638 77.0354L54.8516 75.617ZM66.5204 68.8785L67.9929 69.1647L68.679 65.6339L65.6876 67.631L66.5204 68.8785ZM60.7918 72.4649L60.0425 71.1654L60.0421 71.1657L60.7918 72.4649ZM67.5333 62.1614L68.4254 63.3673L68.95 62.9792L69.0237 62.3308L67.5333 62.1614ZM58.3347 68.2064L57.5848 66.9073L58.3347 68.2064ZM67.5333 40.1846L69.0237 40.0152L68.95 39.3668L68.4254 38.9787L67.5333 40.1846ZM58.3347 34.1395L57.5844 35.4384L57.5848 35.4387L58.3347 34.1395ZM48.5001 29.1846L49.0986 27.8092L48.5001 27.5487L47.9016 27.8092L48.5001 29.1846ZM38.6655 34.1395L39.4153 35.4387L38.6655 34.1395ZM29.4668 40.1846L28.5748 38.9787L28.0501 39.3668L27.9764 40.0152L29.4668 40.1846ZM29.4668 62.1614L27.9764 62.3308L28.0501 62.9792L28.5748 63.3673L29.4668 62.1614ZM38.6655 68.2064L39.4157 66.9076L39.4153 66.9073L38.6655 68.2064ZM48.5001 73.1614L47.9016 74.5368L48.5 74.7972L49.0985 74.5368L48.5001 73.1614ZM86.8271 73.3008L88.1261 74.0509L88.1263 74.0506L86.8271 73.3008ZM82.754 55.0707L83.9739 54.1979L82.8853 52.6764L81.6369 54.0698L82.754 55.0707ZM72.1753 64.8479L71.2569 63.6619L70.7708 64.0384L70.6887 64.6476L72.1753 64.8479ZM69.0496 78.8983L67.6248 78.4291L67.0386 80.2093L68.9039 80.3912L69.0496 78.8983ZM87.745 51.3475C94.4783 42.0936 96.4821 32.9354 92.3847 25.8367L89.7865 27.3363C93.0024 32.9081 91.7742 40.7111 85.3192 49.5824L87.745 51.3475ZM87.3938 51.7981C87.495 51.6724 87.6218 51.5153 87.7411 51.3529L85.3231 49.5771C85.2501 49.6765 85.166 49.7813 85.0569 49.917L87.3938 51.7981ZM87.175 52.0746C87.2386 51.9911 87.3083 51.9043 87.3938 51.7981L85.0569 49.917C84.9762 50.0172 84.8801 50.1364 84.7874 50.2583L87.175 52.0746ZM92.3845 76.5079C96.6866 69.0553 94.0334 59.4333 87.1826 50.2684L84.7798 52.0645C91.409 60.9331 93.1617 69.1609 89.7863 75.008L92.3845 76.5079ZM72.8947 85.5158C84.478 85.5158 89.9192 80.7789 92.3845 76.5078L89.7863 75.0081C87.9014 78.2736 83.4983 82.5158 72.8947 82.5158V85.5158ZM67.0692 85.103C69.0409 85.3442 71.0094 85.5158 72.8947 85.5158V82.5158C71.1807 82.5158 69.3463 82.3592 67.4334 82.1252L67.0692 85.103ZM48.5001 101.846C57.1101 101.846 64.1186 94.729 68.63 84.2051L65.8726 83.0231C61.5067 93.2076 55.2551 98.846 48.5001 98.846V101.846ZM28.37 84.2067C32.8816 94.729 39.8901 101.846 48.5001 101.846V98.846C41.745 98.846 35.4933 93.2075 31.1273 83.0245L28.37 84.2067ZM24.1053 85.5173C25.9912 85.5173 27.9597 85.3441 29.9296 85.1047L29.5677 82.1266C27.6529 82.3593 25.8189 82.5173 24.1053 82.5173V85.5173ZM4.61555 76.5096C7.08075 80.7786 12.5201 85.5173 24.1053 85.5173V82.5173C13.5004 82.5173 9.09857 78.2738 7.2135 75.0094L4.61555 76.5096ZM9.81725 50.2717C2.96838 59.4347 0.31324 69.0567 4.61544 76.5094L7.21361 75.0096C3.83829 69.1625 5.59258 60.9347 12.2202 52.0678L9.81725 50.2717ZM9.59547 51.7859C9.68454 51.8968 9.75505 51.9848 9.81871 52.0697L12.2187 50.2697C12.1202 50.1384 12.0182 50.0115 11.9347 49.9076L9.59547 51.7859ZM9.25594 51.3486C9.37332 51.5097 9.49764 51.664 9.59547 51.7859L11.9347 49.9076C11.8287 49.7755 11.7492 49.6761 11.6801 49.5813L9.25594 51.3486ZM4.61542 25.8366C0.517806 32.9352 2.52185 42.092 9.25504 51.3474L11.681 49.5826C5.22584 40.7093 3.99753 32.9079 7.21362 27.3364L4.61542 25.8366ZM24.1085 16.8287C12.5204 16.8305 7.08092 21.567 4.61555 25.8364L7.2135 27.3366C9.09839 24.0725 13.5001 19.8304 24.109 19.8287L24.1085 16.8287ZM29.9311 17.2415C27.961 17.0002 25.9925 16.8287 24.1087 16.8287V19.8287C25.8211 19.8287 27.6555 19.9852 29.5665 20.2192L29.9311 17.2415ZM48.5001 0.5C39.8919 0.5 32.8816 7.61685 28.3702 18.1393L31.1275 19.3214C35.4933 9.13855 41.7467 3.5 48.5001 3.5V0.5ZM68.6301 18.1392C64.1185 7.61694 57.11 0.5 48.5001 0.5V3.5C55.2551 3.5 61.5068 9.13846 65.8729 19.3214L68.6301 18.1392ZM72.8949 16.8287C71.0089 16.8287 69.0404 17.0019 67.0705 17.2413L67.4325 20.2194C69.3472 19.9867 71.1812 19.8287 72.8949 19.8287V16.8287ZM92.3846 25.8364C89.9194 21.5674 84.48 16.8287 72.8949 16.8287V19.8287C83.4997 19.8287 87.9015 24.0722 89.7866 27.3366L92.3846 25.8364ZM72.8949 24.746C79.3526 24.746 83.6794 26.5943 85.5282 29.7954L88.1261 28.2949C85.4609 23.6805 79.7107 21.746 72.8949 21.746V24.746ZM69.195 24.9423C70.4872 24.8163 71.7258 24.746 72.8949 24.746V21.746C71.6084 21.746 70.2704 21.8232 68.9038 21.9565L69.195 24.9423ZM73.6634 37.3044C72.9663 32.129 71.899 27.3035 70.474 22.9799L67.6248 23.919C68.983 28.0401 70.0136 32.6818 70.6903 37.7049L73.6634 37.3044ZM83.9006 46.2367C80.8696 42.8431 77.2244 39.5064 73.0935 36.3173L71.2602 38.692C75.2694 41.7871 78.7739 45.0003 81.6632 48.2351L83.9006 46.2367ZM85.5282 29.7954C87.7232 33.5958 86.4739 39.4811 81.561 46.3645L84.0028 48.1073C89.0294 41.0647 91.2779 33.7521 88.1261 28.2949L85.5282 29.7954ZM71.8664 45.5569C74.3719 47.7346 76.5862 49.9512 78.5107 52.1587L80.772 50.1873C78.7526 47.8709 76.4396 45.557 73.8345 43.2927L71.8664 45.5569ZM74.5865 51.173C74.5865 48.8269 74.4882 46.5546 74.3475 44.3301L71.3535 44.5195C71.4917 46.7044 71.5865 48.9099 71.5865 51.173H74.5865ZM74.3475 58.0159C74.4882 55.7914 74.5865 53.5191 74.5865 51.173H71.5865C71.5865 53.4361 71.4917 55.6416 71.3535 57.8265L74.3475 58.0159ZM78.5111 50.1869C76.5863 52.393 74.3719 54.61 71.8661 56.7894L73.8349 59.053C76.44 56.7873 78.7526 54.4734 80.7716 52.1591L78.5111 50.1869ZM67.3492 32.2086C65.4932 30.9745 63.5756 29.755 61.5439 28.5808L60.0427 31.1783C62.004 32.3117 63.8662 33.4952 65.6881 34.7067L67.3492 32.2086ZM62.6541 24.6962C63.6025 27.463 64.413 30.4873 65.0463 33.744L67.9911 33.1713C67.3328 29.7862 66.4876 26.6278 65.4921 23.7235L62.6541 24.6962ZM55.341 28.1459C58.477 27.0674 61.5016 26.2423 64.3616 25.6819L63.7846 22.7379C60.7735 23.328 57.6153 24.1913 54.3653 25.309L55.341 28.1459ZM61.543 28.5803C59.5378 27.4233 57.5228 26.3753 55.5186 25.3832L54.1877 28.0718C56.157 29.0466 58.1115 30.0639 60.0436 31.1788L61.543 28.5803ZM48.5001 8.4173C50.6967 8.4173 52.8993 9.40187 55.0306 11.4046C57.17 13.4149 59.1691 16.3938 60.891 20.1893L63.623 18.9498C61.7978 14.9268 59.5977 11.5795 57.0849 9.21837C54.5641 6.8496 51.6617 5.4173 48.5001 5.4173V8.4173ZM36.1091 20.1878C37.8309 16.3932 39.8301 13.4146 41.9695 11.4045C44.1009 9.40187 46.3035 8.4173 48.5001 8.4173V5.4173C45.3385 5.4173 42.4361 6.8496 39.9153 9.21812C37.4025 11.5791 35.2023 14.9259 33.3772 18.9482L36.1091 20.1878ZM49.0676 22.4804C44.2865 20.5261 39.5678 19.0502 35.052 18.1001L34.4343 21.0359C38.7531 21.9444 43.2985 23.3632 47.9325 25.2574L49.0676 22.4804ZM61.9487 18.1016C57.4325 19.0501 52.7136 20.5261 47.9325 22.4804L49.0676 25.2574C53.7016 23.3632 58.2468 21.9445 62.5653 21.0375L61.9487 18.1016ZM32.6385 25.6819C35.4985 26.2423 38.5231 27.0674 41.6591 28.1459L42.6348 25.309C39.3848 24.1913 36.2267 23.328 33.2155 22.7379L32.6385 25.6819ZM31.9541 33.7439C32.5871 30.4877 33.399 27.4632 34.3462 24.6956L31.5078 23.7242C30.5142 26.6276 29.6674 29.7858 29.0092 33.1714L31.9541 33.7439ZM35.4542 28.5811C33.4241 29.7554 31.5067 30.9765 29.6519 32.208L31.3113 34.7073C33.1346 33.4967 34.9969 32.3114 36.9563 31.178L35.4542 28.5811ZM41.4828 25.3825C39.4755 26.3737 37.4602 27.4235 35.4555 28.5804L36.955 31.1787C38.8873 30.0637 40.8419 29.0447 42.8111 28.0725L41.4828 25.3825ZM24.1053 77.6C17.6477 77.6 13.3207 75.7517 11.4719 72.5506L8.87406 74.0511C11.5392 78.6655 17.2896 80.6 24.1053 80.6V77.6ZM27.8068 77.4052C26.5135 77.5297 25.2745 77.6 24.1053 77.6V80.6C25.3916 80.6 26.7292 80.5228 28.0943 80.3914L27.8068 77.4052ZM23.3382 65.0482C24.0352 70.2203 25.1027 75.0457 26.5258 79.3675L29.3753 78.4291C28.0186 74.3093 26.9878 69.6674 26.3114 64.6476L23.3382 65.0482ZM13.1289 56.0717C16.2139 59.5148 19.8282 62.8757 23.9064 66.0339L25.7432 63.6619C21.7997 60.6081 18.32 57.3698 15.3633 54.0698L13.1289 56.0717ZM11.472 72.5508C10.3741 70.6493 10.1254 68.2506 10.7933 65.4051C11.4637 62.5488 13.0423 59.33 15.4659 55.9437L13.0263 54.1977C10.4572 57.7874 8.66018 61.3645 7.87267 64.7196C7.08263 68.0854 7.29365 71.3138 8.87396 74.0509L11.472 72.5508ZM25.1337 56.7891C22.6282 54.6114 20.4139 52.3948 18.4894 50.1873L16.2281 52.1587C18.2475 54.4751 20.5605 56.789 23.1656 59.0533L25.1337 56.7891ZM22.4136 51.173C22.4136 53.5191 22.5119 55.7914 22.6526 58.0159L25.6466 57.8265C25.5084 55.6416 25.4136 53.4361 25.4136 51.173H22.4136ZM22.6526 44.3301C22.5119 46.5546 22.4136 48.8269 22.4136 51.173H25.4136C25.4136 48.9099 25.5084 46.7044 25.6466 44.5195L22.6526 44.3301ZM18.4891 52.1591C20.4138 49.953 22.6282 47.736 25.134 45.5566L23.1653 43.293C20.5601 45.5587 18.2476 47.8726 16.2285 50.1869L18.4891 52.1591ZM23.9068 36.3154C19.7739 39.5049 16.1304 42.8434 13.0998 46.2346L15.3367 48.2337C18.2264 45.0001 21.7295 41.7851 25.7397 38.6904L23.9068 36.3154ZM26.5258 22.9787C25.1027 27.3017 24.0337 32.1285 23.3367 37.3027L26.3098 37.7032C26.9862 32.682 28.0186 28.0384 29.3753 23.9167L26.5258 22.9787ZM24.1053 24.746C25.2754 24.746 26.5144 24.8147 27.8049 24.9406L28.0962 21.9548C26.7283 21.8213 25.3903 21.746 24.1053 21.746V24.746ZM11.472 29.7952C13.3192 26.5962 17.6474 24.7477 24.1057 24.746L24.1049 21.746C17.2899 21.7478 11.5376 23.6821 8.87399 28.2951L11.472 29.7952ZM15.4392 46.3628C10.5279 39.4813 9.27827 33.5956 11.4721 29.795L8.87387 28.2953C5.72397 33.7522 7.97219 41.0646 12.9973 48.1055L15.4392 46.3628ZM29.6453 70.1278C31.5169 71.3773 33.4436 72.6038 35.4548 73.7655L36.9553 71.1677C35.0165 70.0479 33.1469 68.8584 31.311 67.6327L29.6453 70.1278ZM34.3459 77.6503C33.3976 74.8812 32.5855 71.8534 31.9505 68.5935L29.0058 69.1671C29.6658 72.5551 30.5126 75.7165 31.5077 78.6223L34.3459 77.6503ZM41.6589 74.2002C38.5229 75.2788 35.4983 76.1038 32.6383 76.6643L33.2153 79.6083C36.2265 79.0182 39.3846 78.1549 42.6346 77.0372L41.6589 74.2002ZM35.4558 73.7661C37.4623 74.923 39.4773 75.9709 41.4812 76.963L42.8123 74.2744C40.8432 73.2996 38.8882 72.2822 36.9543 71.1672L35.4558 73.7661ZM48.5001 93.9287C46.3035 93.9287 44.1009 92.9441 41.9696 90.9414C39.8302 88.9311 37.831 85.9522 36.1091 82.1567L33.3771 83.3961C35.2023 87.4192 37.4025 90.7665 39.9153 93.1276C42.4361 95.4964 45.3385 96.9287 48.5001 96.9287V93.9287ZM60.891 82.1567C59.1691 85.9522 57.17 88.9311 55.0306 90.9414C52.8993 92.9441 50.6967 93.9287 48.5001 93.9287V96.9287C51.6617 96.9287 54.5641 95.4964 57.0849 93.1276C59.5977 90.7664 61.7978 87.4192 63.623 83.3961L60.891 82.1567ZM47.9325 79.8656C52.7136 81.8199 57.4325 83.2959 61.9487 84.2444L62.5653 81.3085C58.2468 80.4015 53.7016 78.9828 49.0676 77.0886L47.9325 79.8656ZM35.0515 84.2444C39.5676 83.2959 44.2867 81.8199 49.0676 79.8655L47.9325 77.0886C43.2987 78.9828 38.7533 80.4015 34.4348 81.3085L35.0515 84.2444ZM64.3599 76.6626C61.4984 76.1021 58.4756 75.2771 55.3395 74.1985L54.3638 77.0354C57.6136 78.1531 60.7701 79.0165 63.7833 79.6066L64.3599 76.6626ZM65.048 68.5924C64.4146 71.8516 63.6012 74.8792 62.6525 77.6485L65.4906 78.6207C66.4858 75.7154 67.3343 72.5538 67.9929 69.1647L65.048 68.5924ZM61.541 73.7644C63.5566 72.6022 65.482 71.3753 67.3533 70.1261L65.6876 67.631C63.8512 68.8569 61.9838 70.0461 60.0425 71.1654L61.541 73.7644ZM55.5158 76.9619C57.5234 75.9704 59.5368 74.9208 61.5415 73.7641L60.0421 71.1657C58.1094 72.2809 56.1563 73.2997 54.1874 74.272L55.5158 76.9619ZM66.6412 60.9555C63.8351 63.0314 60.8223 65.0387 57.5848 66.9073L59.0845 69.5056C62.4297 67.5748 65.5373 65.5038 68.4254 63.3673L66.6412 60.9555ZM66.6693 51.173C66.6693 54.9118 66.437 58.5233 66.0429 61.9921L69.0237 62.3308C69.4293 58.7613 69.6693 55.0361 69.6693 51.173H66.6693ZM66.0429 40.3539C66.437 43.8227 66.6693 47.4342 66.6693 51.173H69.6693C69.6693 47.3099 69.4293 43.5847 69.0237 40.0152L66.0429 40.3539ZM57.5848 35.4387C60.8223 37.3073 63.8351 39.3146 66.6412 41.3904L68.4254 38.9787C65.5373 36.8422 62.4297 34.7712 59.0845 32.8404L57.5848 35.4387ZM47.9016 30.56C51.0997 31.9517 54.3449 33.5672 57.5844 35.4384L59.0849 32.8407C55.7417 30.9095 52.3947 29.2434 49.0986 27.8092L47.9016 30.56ZM39.4153 35.4387C42.6553 33.5686 45.9007 31.9515 49.0986 30.56L47.9016 27.8092C44.6051 29.2436 41.2582 30.9111 37.9156 32.8404L39.4153 35.4387ZM30.3589 41.3904C33.165 39.3146 36.1778 37.3073 39.4153 35.4387L37.9156 32.8404C34.5704 34.7712 31.4628 36.8422 28.5748 38.9787L30.3589 41.3904ZM30.3309 51.173C30.3309 47.4342 30.5631 43.8226 30.9573 40.3539L27.9764 40.0152C27.5708 43.5847 27.3309 47.3099 27.3309 51.173H30.3309ZM30.9573 61.9921C30.5631 58.5233 30.3309 54.9118 30.3309 51.173H27.3309C27.3309 55.0361 27.5708 58.7613 27.9764 62.3308L30.9573 61.9921ZM39.4153 66.9073C36.1778 65.0387 33.165 63.0314 30.3589 60.9555L28.5748 63.3673C31.4628 65.5038 34.5704 67.5748 37.9156 69.5056L39.4153 66.9073ZM49.0986 71.786C45.9004 70.3943 42.6552 68.7788 39.4157 66.9076L37.9152 69.5053C41.2584 71.4365 44.6054 73.1026 47.9016 74.5368L49.0986 71.786ZM57.5848 66.9073C54.3448 68.7774 51.0994 70.3947 47.9016 71.7859L49.0985 74.5368C52.395 73.1026 55.7419 71.4349 59.0845 69.5056L57.5848 66.9073ZM85.5281 72.5508C83.6808 75.75 79.3524 77.6 72.8949 77.6V80.6C79.7106 80.6 85.4626 78.6637 88.1261 74.0509L85.5281 72.5508ZM81.5341 55.9436C83.9577 59.3308 85.536 62.5496 86.2062 65.4057C86.874 68.251 86.6253 70.6494 85.5279 72.5511L88.1263 74.0506C89.7056 71.3137 89.9167 68.0859 89.1269 64.7203C88.3396 61.3654 86.543 57.7884 83.9739 54.1979L81.5341 55.9436ZM73.0938 66.0338C77.1719 62.8756 80.7862 59.5149 83.8712 56.0717L81.6369 54.0698C78.6801 57.3698 75.2004 60.6079 71.2569 63.6619L73.0938 66.0338ZM70.4743 79.3675C71.8974 75.046 72.9649 70.2221 73.6619 65.0481L70.6887 64.6476C70.0123 69.669 68.9815 74.3094 67.6248 78.4291L70.4743 79.3675ZM72.8949 77.6C71.7247 77.6 70.4857 77.5313 69.1952 77.4054L68.9039 80.3912C70.2718 80.5247 71.6098 80.6 72.8949 80.6V77.6ZM48.5 37.3798C40.894 37.3798 34.7068 43.567 34.7068 51.173H37.7068C37.7068 45.2238 42.5509 40.3798 48.5 40.3798V37.3798ZM62.2933 51.173C62.2933 43.567 56.1061 37.3798 48.5 37.3798V40.3798C54.4492 40.3798 59.2933 45.2238 59.2933 51.173H62.2933ZM48.5 64.9663C56.1061 64.9663 62.2933 58.779 62.2933 51.173H59.2933C59.2933 57.1222 54.4492 61.9663 48.5 61.9663V64.9663ZM34.7068 51.173C34.7068 58.779 40.894 64.9663 48.5 64.9663V61.9663C42.5509 61.9663 37.7068 57.1222 37.7068 51.173H34.7068ZM48.5 57.049C45.2619 57.049 42.6241 54.4112 42.6241 51.173H39.6241C39.6241 56.068 43.6051 60.049 48.5 60.049V57.049ZM54.376 51.173C54.376 54.4112 51.7382 57.049 48.5 57.049V60.049C53.395 60.049 57.376 56.068 57.376 51.173H54.376ZM48.5 45.2971C51.7382 45.2971 54.376 47.9349 54.376 51.173H57.376C57.376 46.278 53.395 42.2971 48.5 42.2971V45.2971ZM42.6241 51.173C42.6241 47.9349 45.2619 45.2971 48.5 45.2971V42.2971C43.6051 42.2971 39.6241 46.278 39.6241 51.173H42.6241Z" fill="#2F3E46" mask="url(#path-1-outside-1_44_432)"/>
</g>
<defs>
<filter id="filter0_d_44_432" x="0.49646" y="0.5" width="94.0071" height="103.346" filterUnits="userSpaceOnUse" color-interpolation-filters="sRGB">
<feFlood flood-opacity="0" result="BackgroundImageFix"/>
<feColorMatrix in="SourceAlpha" type="matrix" values="0 0 0 0 0 0 0 0 0 0 0 0 0 0 0 0 0 0 127 0" result="hardAlpha"/>
<feOffset dx="-2" dy="2"/>
<feComposite in2="hardAlpha" operator="out"/>
<feColorMatrix type="matrix" values="0 0 0 0 0.207843 0 0 0 0 0.309804 0 0 0 0 0.321569 0 0 0 0.62 0"/>
<feBlend mode="normal" in2="BackgroundImageFix" result="effect1_dropShadow_44_432"/>
<feBlend mode="normal" in="SourceGraphic" in2="effect1_dropShadow_44_432" result="shape"/>
</filter>
<linearGradient id="paint0_linear_44_432" x1="4" y1="2" x2="84" y2="94.5" gradientUnits="userSpaceOnUse">
<stop stop-color="#FBCA4C"/>
<stop offset="1" stop-color="#FF9458"/>
</linearGradient>
</defs>
</svg>
