<svg width="89" height="90" viewBox="0 0 89 90" fill="none" xmlns="http://www.w3.org/2000/svg">
<path fill-rule="evenodd" clip-rule="evenodd" d="M5.80852 2.90817C1.5514 4.96841 1.11353 8.06577 1.11353 36.0765C1.11353 69.2287 1.57291 70.5035 13.5363 70.5035H18.3271V87.1286L26.6885 78.8166L35.05 70.5035H57.2996C80.9553 70.5035 83.9419 69.9818 85.9871 65.4933C87.6223 61.9032 87.6223 10.2497 85.9871 6.65964C85.3297 5.21801 83.6127 3.50096 82.171 2.84362C78.7025 1.2632 9.0834 1.32237 5.80852 2.90817ZM9.7203 36.0765V61.8968H78.5745V10.2562H9.7203V36.0765ZM41.0468 22.5499L38.6272 28.3896L31.5309 29.1491L24.4357 29.9087L29.6998 34.4756L34.964 39.0426L33.6547 45.2857C32.0097 53.1243 32.1538 53.2308 38.7111 49.0232L44.1162 45.5547L49.6278 48.9468C56.2991 53.0512 56.2733 53.0695 54.6401 45.2857L53.3308 39.0426L58.5949 34.4756L63.859 29.9087L56.7638 29.1491L49.6676 28.3896L47.248 22.5499C45.9161 19.3385 44.5218 16.7113 44.1474 16.7113C43.773 16.7113 42.3787 19.3385 41.0468 22.5499Z" fill="url(#paint0_linear_67_13957)" stroke="#2F3E46" stroke-width="2"/>
<defs>
<linearGradient id="paint0_linear_67_13957" x1="44.1635" y1="1.68811" x2="44.1635" y2="87.1286" gradientUnits="userSpaceOnUse">
<stop stop-color="#ED75A8"/>
<stop offset="1" stop-color="#DB4A4A"/>
</linearGradient>
</defs>
</svg>
