<svg width="89" height="81" viewBox="0 0 89 81" fill="none" xmlns="http://www.w3.org/2000/svg">
<g filter="url(#filter0_d_44_367)">
<path d="M-6.66012e-05 61.75C-6.66012e-05 63.2927 0.533933 64.6277 1.60193 65.755C2.66993 66.8823 4.00493 67.4163 5.60693 67.357H11.1249C14.9223 67.357 18.5416 66.6153 21.9829 65.132C25.4243 63.6487 28.3613 61.661 30.7939 59.169C33.2266 56.677 35.2143 53.7103 36.7569 50.269C38.2996 46.8277 39.0413 43.238 38.9819 39.5C38.9819 34.9313 40.5839 31.0153 43.7879 27.752C46.9919 24.4887 50.9376 22.857 55.6249 22.857H66.7499V28.375C66.7499 29.621 67.1059 30.689 67.8179 31.579C68.5299 32.469 69.3309 33.1217 70.2209 33.537C71.1109 33.9523 72.1493 34.071 73.3359 33.893C74.5226 33.715 75.5016 33.2107 76.2729 32.38L87.3979 21.255C88.5253 20.0683 89.0593 18.7333 88.9999 17.25C88.9406 15.7667 88.4066 14.4613 87.3979 13.334L76.2729 2.20901C75.3829 1.37834 74.3743 0.874006 73.2469 0.696006C72.1196 0.518006 71.0813 0.636672 70.1319 1.05201C69.1826 1.46734 68.3816 2.12001 67.7289 3.01001C67.0763 3.90001 66.7499 4.93834 66.7499 6.12501V11.732H55.6249C51.8869 11.732 48.2973 12.4737 44.8559 13.957C41.4146 15.4403 38.4479 17.3983 35.9559 19.831C33.4639 22.2637 31.4763 25.2303 29.9929 28.731C28.5096 32.2317 27.7976 35.8213 27.8569 39.5C27.8569 44.128 26.2253 48.0737 22.9619 51.337C19.6986 54.6003 15.7529 56.232 11.1249 56.232H5.60693C4.06427 56.232 2.72927 56.766 1.60193 57.834C0.4746 58.902 -0.0593999 60.2073 -6.66012e-05 61.75ZM-6.66012e-05 17.339C-6.66012e-05 18.8817 0.533933 20.187 1.60193 21.255C2.66993 22.323 4.00493 22.857 5.60693 22.857H11.1249C13.7356 22.857 16.1386 23.4207 18.3339 24.548C20.5293 25.6753 22.4576 27.218 24.1189 29.176C25.3649 25.3787 27.2043 21.967 29.6369 18.941C24.2376 14.135 18.0669 11.732 11.1249 11.732H5.60693C4.06427 11.732 2.72927 12.2957 1.60193 13.423C0.4746 14.5503 -0.0593999 15.8557 -6.66012e-05 17.339ZM37.2019 60.237C42.4826 64.9837 48.6236 67.357 55.6249 67.357H66.7499V72.964C66.7499 74.1507 67.1059 75.2187 67.8179 76.168C68.5299 77.1173 69.3309 77.77 70.2209 78.126C71.1109 78.482 72.1493 78.571 73.3359 78.393C74.5226 78.215 75.5016 77.7107 76.2729 76.88L87.3979 65.755C88.5253 64.6277 89.0593 63.2927 88.9999 61.75C88.9406 60.2073 88.4066 58.9317 87.3979 57.923L76.2729 46.798C75.3829 45.908 74.3743 45.374 73.2469 45.196C72.1196 45.018 71.0813 45.1367 70.1319 45.552C69.1826 45.9673 68.3816 46.6497 67.7289 47.599C67.0763 48.5483 66.7499 49.5867 66.7499 50.714V56.232H55.6249C53.0736 56.232 50.6706 55.698 48.4159 54.63C46.1613 53.562 44.2626 52.0193 42.7199 50.002C41.4146 53.7993 39.5753 57.211 37.2019 60.237Z" fill="url(#paint0_linear_44_367)"/>
<path d="M0.628509 61.75V61.7379L0.628045 61.7258C0.575716 60.3653 1.03742 59.2347 2.03423 58.2903C3.04567 57.3321 4.22628 56.8606 5.60693 56.8606H11.1249C15.9191 56.8606 20.0248 55.1631 23.4064 51.7815C26.788 48.3999 28.4855 44.2942 28.4855 39.5H28.4856L28.4854 39.4899C28.4276 35.9018 29.1214 32.3989 30.5717 28.9762C32.0255 25.5453 33.968 22.6501 36.395 20.2808C38.8279 17.9059 41.7287 15.9894 45.1047 14.5342C48.4677 13.0847 51.9727 12.3606 55.6249 12.3606H66.7499H67.3785V11.732V6.12501C67.3785 5.06138 67.6683 4.15563 68.2358 3.38172C68.8274 2.57502 69.5427 1.99591 70.3839 1.62788C71.2122 1.26548 72.1277 1.15564 73.1489 1.31689C74.1407 1.47349 75.0335 1.91459 75.8362 2.66124L86.9409 13.7659C87.8468 14.7836 88.3187 15.9462 88.3718 17.2751C88.4236 18.5682 87.9674 19.7405 86.9476 20.8164L75.8285 31.9355L75.8202 31.9438L75.8123 31.9523C75.1439 32.6722 74.2973 33.1132 73.2427 33.2714C72.1509 33.4352 71.2421 33.3199 70.4867 32.9674C69.6974 32.599 68.97 32.0129 68.3088 31.1863C67.6944 30.4184 67.3785 29.4925 67.3785 28.375V22.857V22.2284H66.7499H55.6249C50.7736 22.2284 46.6649 23.9246 43.3394 27.3116C40.0201 30.6924 38.3534 34.7664 38.3534 39.5H38.3533L38.3534 39.51C38.4113 43.1552 37.6887 46.6537 36.1833 50.0119C34.6684 53.3914 32.721 56.2951 30.3441 58.7299C27.973 61.1588 25.1059 63.1014 21.7341 64.5548C18.3724 66.0038 14.8379 66.7284 11.1249 66.7284H5.60693H5.5953L5.58367 66.7289C4.15559 66.7818 2.99746 66.3141 2.05825 65.3227C1.10004 64.3113 0.628509 63.1307 0.628509 61.75ZM0.628509 17.339V17.3264L0.628007 17.3139C0.576246 16.0199 1.03284 14.881 2.0464 13.8675C3.06026 12.8536 4.23711 12.3606 5.60693 12.3606H11.1249C17.7163 12.3606 23.5919 14.5731 28.7733 19.0209C26.6914 21.7109 25.0584 24.6911 23.8741 27.9589C22.331 26.3193 20.5797 24.9946 18.6211 23.9888C16.3318 22.8132 13.8295 22.2284 11.1249 22.2284H5.60693C4.16042 22.2284 2.98882 21.7529 2.0464 20.8105L1.60193 21.255L2.0464 20.8105C1.09908 19.8632 0.628509 18.719 0.628509 17.339ZM67.3785 67.357V66.7284H66.7499H55.6249C48.9731 66.7284 43.1259 64.5421 38.0588 60.1548C40.0861 57.4757 41.7115 54.5093 42.9357 51.2582C44.3997 52.9316 46.1378 54.2464 48.1468 55.1981C50.4876 56.3068 52.9827 56.8606 55.6249 56.8606H66.7499H67.3785V56.232V50.714C67.3785 49.7168 67.6646 48.8021 68.2469 47.9551C68.8408 47.0913 69.5537 46.4911 70.3839 46.1279C71.2122 45.7655 72.1277 45.6556 73.1489 45.8169C74.1315 45.972 75.0222 46.4363 75.8285 47.2425L86.9535 58.3675C87.8405 59.2545 88.318 60.3755 88.3718 61.7742C88.4242 63.1355 87.9616 64.3024 86.9535 65.3105L75.8285 76.4355L75.8202 76.4438L75.8123 76.4523C75.1439 77.1722 74.2973 77.6132 73.2427 77.7714C72.1389 77.937 71.2177 77.8477 70.4544 77.5424C69.6942 77.2383 68.98 76.6698 68.3208 75.7909C67.6904 74.9503 67.3785 74.0147 67.3785 72.964V67.357Z" stroke="#2F3E46" stroke-width="1.25715"/>
</g>
<defs>
<filter id="filter0_d_44_367" x="-1.99494" y="0.615906" width="90.9993" height="79.8565" filterUnits="userSpaceOnUse" color-interpolation-filters="sRGB">
<feFlood flood-opacity="0" result="BackgroundImageFix"/>
<feColorMatrix in="SourceAlpha" type="matrix" values="0 0 0 0 0 0 0 0 0 0 0 0 0 0 0 0 0 0 127 0" result="hardAlpha"/>
<feOffset dx="-1.99042" dy="1.99042"/>
<feComposite in2="hardAlpha" operator="out"/>
<feColorMatrix type="matrix" values="0 0 0 0 0.207843 0 0 0 0 0.309804 0 0 0 0 0.321569 0 0 0 1 0"/>
<feBlend mode="normal" in2="BackgroundImageFix" result="effect1_dropShadow_44_367"/>
<feBlend mode="normal" in="SourceGraphic" in2="effect1_dropShadow_44_367" result="shape"/>
</filter>
<linearGradient id="paint0_linear_44_367" x1="44.4999" y1="0.615906" x2="44.4999" y2="78.482" gradientUnits="userSpaceOnUse">
<stop stop-color="#00A486"/>
<stop offset="1" stop-color="#836AEB"/>
</linearGradient>
</defs>
</svg>
