<svg width="78" height="104" viewBox="0 0 78 104" fill="none" xmlns="http://www.w3.org/2000/svg">
<g filter="url(#filter0_d_44_843)">
<path d="M51.4462 3.8586C51.6973 2.35171 50.8858 0.868418 49.4813 0.267435C48.0767 -0.333548 46.4434 0.103554 45.5268 1.32569L5.76369 54.3432C5.01064 55.3472 4.88949 56.6906 5.45082 57.8132C6.01207 58.9358 7.15951 59.6449 8.41457 59.6449H35.0019C36.3823 59.6449 37.4324 60.8844 37.2054 62.246L31.6548 95.5499C31.4037 97.0563 32.2152 98.5401 33.6197 99.1405C35.0242 99.7416 36.6576 99.3049 37.5742 98.0828L77.337 45.0651C78.0906 44.0611 78.2112 42.7177 77.6505 41.5951C77.0892 40.4725 75.9413 39.7634 74.6861 39.7634H48.0991C46.7187 39.7634 45.6686 38.5239 45.8956 37.1622L51.4462 3.8586Z" fill="url(#paint0_linear_44_843)"/>
<path d="M51.4386 3.85734L50.3444 3.67496C50.5109 2.676 49.9729 1.69272 49.0418 1.29432C48.1108 0.895914 47.028 1.18568 46.4203 1.99586L6.65724 55.0133L5.76369 54.3432L6.65723 55.0134C6.15804 55.6789 6.07772 56.5695 6.44983 57.3137L6.44985 57.3137C6.8219 58.0578 7.58255 58.5279 8.41457 58.5279H35.0019C37.0725 58.5279 38.6476 60.3872 38.3072 62.4297L32.7566 95.7335L32.7566 95.7336C32.5901 96.7321 33.1282 97.7157 34.0588 98.1135L34.0592 98.1137C34.9905 98.5122 36.0732 98.2226 36.6807 97.4126L76.4435 44.3949L76.4437 44.3946C76.9429 43.7295 77.0232 42.8389 76.6513 42.0942L51.4386 3.85734ZM51.4386 3.85734L50.3444 3.67497L44.7938 36.9786C44.4534 39.021 46.0284 40.8803 48.0991 40.8803H74.6861C75.5183 40.8803 76.2791 41.3504 76.6512 42.0941L51.4386 3.85734Z" stroke="#820202" stroke-width="2.23389"/>
</g>
<defs>
<filter id="filter0_d_44_843" x="0.633165" y="0" width="77.3668" height="103.876" filterUnits="userSpaceOnUse" color-interpolation-filters="sRGB">
<feFlood flood-opacity="0" result="BackgroundImageFix"/>
<feColorMatrix in="SourceAlpha" type="matrix" values="0 0 0 0 0 0 0 0 0 0 0 0 0 0 0 0 0 0 127 0" result="hardAlpha"/>
<feOffset dx="-4.46779" dy="4.46779"/>
<feComposite in2="hardAlpha" operator="out"/>
<feColorMatrix type="matrix" values="0 0 0 0 0.207843 0 0 0 0 0.309804 0 0 0 0 0.321569 0 0 0 0.78 0"/>
<feBlend mode="normal" in2="BackgroundImageFix" result="effect1_dropShadow_44_843"/>
<feBlend mode="normal" in="SourceGraphic" in2="effect1_dropShadow_44_843" result="shape"/>
</filter>
<linearGradient id="paint0_linear_44_843" x1="41.5505" y1="0" x2="41.5505" y2="99.4081" gradientUnits="userSpaceOnUse">
<stop stop-color="#FFF615"/>
<stop offset="1" stop-color="#DB8300"/>
</linearGradient>
</defs>
</svg>
