<svg width="86" height="86" viewBox="0 0 86 86" fill="none" xmlns="http://www.w3.org/2000/svg">
<g filter="url(#filter0_d_58_1288)">
<path d="M85.127 42.4889C85.1562 41.4974 85.4176 27.3255 77.0308 18.1001C76.6581 17.2755 74.8906 13.9519 69.1863 9.88984C66.6574 7.92824 63.9713 6.17803 61.1554 4.65692L61.1443 4.65136C60.7883 4.46084 53.8324 0.78125 45.3899 0.78125C44.7488 0.78125 44.1147 0.818797 43.4875 0.861906V0.850781C37.0503 0.710328 30.6562 2.36656 26.8028 4.10623C23.3846 5.64983 19.5896 8.23778 19.3157 8.43803C14.582 11.0858 5.60549 21.7115 4.89488 27.3422C2.02602 31.0093 -0.371414 47.4812 4.90045 57.5146C8.59673 71.4584 22.5113 78.4365 23.6183 78.9719C24.2913 79.4016 31.8744 84.0894 41.1902 84.0894C41.581 84.0894 43.9436 84.2201 44.7864 84.2201C54.8559 84.2201 69.7773 77.1224 72.9006 71.5627C81.4822 65.2854 85.9308 49.1082 85.127 42.4889ZM23.6947 63.4359C19.705 56.982 17.4314 48.5492 16.9447 46.6121C18.2073 44.7194 24.4359 35.5357 27.9848 32.7726C29.9943 33.1425 38.3853 34.6833 46.2994 36.1156C47.2937 38.6925 51.656 50.0622 52.9048 54.451C51.5281 56.0836 46.12 62.3804 40.7953 67.3115C35.1424 67.338 25.5276 64.0769 23.6947 63.4359ZM73.849 18.2753C73.8323 18.9011 73.6835 21.1261 72.6183 23.6807C70.5032 22.6002 65.1868 20.2862 57.8999 19.8954C56.7972 18.267 52.6476 12.589 46.0935 8.6508C46.9905 6.89583 48.2393 4.75566 48.9694 4.10345C49.2058 4.0367 49.5729 3.97552 50.1319 3.97552C53.646 3.97552 59.7175 6.277 60.2459 6.48142C60.8064 6.77763 71.72 12.6544 73.849 18.2753ZM15.3719 45.2979C10.6117 44.4858 7.78182 43.0062 6.93632 42.5056C5.16605 36.085 6.59145 29.1458 6.81116 28.1515C8.55779 25.0282 13.5307 17.0669 16.8111 15.5552C20.2112 14.8613 24.4512 15.7235 26.1784 16.1449C26.0157 18.3907 25.7028 24.6652 26.6317 31.2498C22.8687 34.2786 16.9127 42.9965 15.3719 45.2979ZM43.062 2.90891C44.13 2.98817 45.6972 3.2218 46.7708 3.54025C45.7 4.96425 44.6028 7.07522 44.0841 8.11819C41.9008 8.47558 33.6085 10.0609 27.1032 14.2787C25.7918 13.931 21.8313 13.0035 18.0808 13.3233C19.0097 11.5252 20.3976 10.1958 20.5464 10.0595C21.0623 9.68959 30.9941 2.74064 43.062 2.89083V2.90891ZM69.6174 55.882C67.9903 55.8152 61.7214 55.4578 54.8475 53.8433C53.5306 49.2515 49.1821 37.929 48.1878 35.3536C51.3514 30.8444 54.563 26.3691 57.8221 21.9285C65.7319 22.3624 71.2861 25.2479 72.3611 25.85C76.9432 33.219 77.9486 40.745 78.0863 42.0022C75.6527 49.5755 70.8397 54.6749 69.6174 55.882ZM4.08276 37.6592C4.19957 39.4198 4.48187 41.2735 4.99223 43.1063C4.5334 44.294 4.2151 45.5312 4.04382 46.7929C3.75339 43.7546 3.76644 40.6949 4.08276 37.6592ZM17.4939 70.1428C19.591 68.1223 22.1762 66.1559 23.1788 65.4133C25.4455 66.2115 34.7544 69.3585 40.6882 69.3585C41.6992 70.7144 45.0047 74.96 49.057 78.2057C46.5344 80.674 42.8909 81.8394 42.2471 82.0327C30.9455 82.3358 19.9387 75.9835 17.4939 70.1428ZM47.3409 82.016C48.6231 81.2692 49.9595 80.2861 51.065 79.0415C52.8687 78.7925 60.6089 77.4603 67.6037 72.322C68.0654 72.372 68.8261 72.4332 69.6758 72.4096C65.4789 76.5216 55.2383 81.1149 47.3409 82.016ZM68.7899 70.3681C71.3028 63.8211 71.1957 58.8843 71.0719 57.3074C72.4514 55.9557 77.1851 50.9119 79.812 43.244C81.2277 43.4804 82.1483 43.8406 82.5849 44.0422C82.7365 44.5985 82.9896 45.8834 82.8464 47.8317C81.7756 54.8446 78.0793 65.3535 71.6046 69.9996C70.9537 70.332 69.8079 70.4043 68.7899 70.3681Z" fill="url(#paint0_linear_58_1288)"/>
<path d="M84.432 42.4684L84.4304 42.5207L84.4368 42.5727C84.8198 45.7272 83.947 51.3068 81.8809 56.9136C79.816 62.5172 76.6197 67.9808 72.4901 71.0015L72.3683 71.0906L72.2944 71.2221C71.5862 72.4828 70.1626 73.8981 68.1979 75.3231C66.2467 76.7382 63.8154 78.1246 61.1582 79.3444C55.8304 81.7901 49.6852 83.5248 44.7864 83.5248C44.3838 83.5248 43.6003 83.4931 42.8493 83.4601C42.7138 83.4542 42.5787 83.4482 42.4472 83.4423C41.8725 83.4167 41.3657 83.3941 41.1902 83.3941C32.0788 83.3941 24.6356 78.7965 23.9924 78.3859L23.9579 78.3638L23.921 78.346C23.3995 78.0937 19.7032 76.2468 15.6872 72.7472C11.6686 69.2455 7.37256 64.1268 5.57255 57.3364L5.55245 57.2606L5.51596 57.1912C2.96226 52.331 2.24337 45.8476 2.53929 40.0766C2.68677 37.2006 3.08506 34.5284 3.61924 32.359C4.1602 30.162 4.8203 28.566 5.44252 27.7706L5.56071 27.6195L5.58472 27.4292C5.74589 26.1522 6.39025 24.5242 7.39018 22.7228C8.38294 20.9343 9.69656 19.0271 11.1416 17.2033C14.0498 13.5329 17.4091 10.3012 19.6551 9.04487L19.6919 9.02427L19.726 8.99937C19.9799 8.81376 23.7316 6.2561 27.0889 4.73996C30.7203 3.10054 36.699 1.52501 42.7922 1.53783V1.60665L43.5352 1.55558C44.1599 1.51265 44.7741 1.47656 45.3899 1.47656C53.6568 1.47656 60.4883 5.0889 60.8162 5.26441L60.8247 5.26894L60.8333 5.27324L60.8346 5.2739C63.6135 6.77566 66.2642 8.50326 68.7601 10.4392L68.7714 10.448L68.7829 10.4562C74.3923 14.4506 76.0777 17.6795 76.3972 18.3864L76.4424 18.4865L76.5163 18.5678C80.5923 23.0514 82.5871 28.764 83.5535 33.5206C84.5185 38.2702 84.4457 42.0034 84.432 42.4684ZM23.1033 63.8015L23.2328 64.0109L23.4652 64.0922C24.3901 64.4157 27.2702 65.3974 30.633 66.2958C33.9775 67.1892 37.8719 68.0205 40.7985 68.0068L41.0691 68.0056L41.2677 67.8217C46.6254 62.8599 52.0563 56.5358 53.4364 54.8993L53.6748 54.6165L53.5736 54.2607C52.3138 49.8334 47.9361 38.4259 46.9481 35.8653L46.8075 35.501L46.4232 35.4314C38.5101 33.9993 30.1198 32.4586 28.1107 32.0888L27.8038 32.0323L27.5577 32.224C25.6983 33.6716 23.2015 36.7347 21.0512 39.6016C18.8817 42.494 17.0009 45.2748 16.3662 46.2262L16.1952 46.4826L16.2703 46.7815C16.7591 48.7268 19.0532 57.2499 23.1033 63.8015ZM74.5441 18.2938L74.5477 18.157L74.4993 18.029C73.917 16.4919 72.7586 14.989 71.3985 13.6139C70.0307 12.2309 68.4163 10.935 66.8658 9.81754C63.7649 7.58251 60.8653 6.02234 60.5708 5.86669L60.5348 5.84765L60.4968 5.83294C60.2226 5.72689 58.5539 5.09338 56.5065 4.48528C54.4805 3.88351 51.999 3.2802 50.1319 3.2802C49.5234 3.2802 49.0907 3.34668 48.7804 3.4343L48.6259 3.47794L48.5061 3.58492C48.0554 3.98753 47.5133 4.76998 47.0022 5.59859C46.4747 6.45393 45.9292 7.44457 45.4744 8.33436L45.179 8.91242L45.7354 9.24679C52.1627 13.1089 56.2442 18.6905 57.3242 20.2853L57.5179 20.5712L57.8627 20.5897C65.0239 20.9737 70.244 23.2485 72.302 24.2999L72.971 24.6416L73.2601 23.9483C74.3689 21.2892 74.526 18.9725 74.5441 18.2938ZM15.2549 45.9833L15.699 46.0591L15.9496 45.6848C16.7166 44.5392 18.5825 41.7967 20.7231 38.966C22.8784 36.1158 25.2616 33.2452 27.0677 31.7915L27.3754 31.5438L27.3202 31.1527C26.4013 24.6389 26.7107 18.4205 26.8719 16.1951L26.9144 15.6087L26.3432 15.4694C24.6126 15.0472 20.238 14.1462 16.6721 14.874L16.5933 14.8901L16.5202 14.9238C15.576 15.3588 14.5759 16.2196 13.6056 17.2437C12.6227 18.281 11.6195 19.5414 10.6739 20.8396C8.78251 23.4365 7.08791 26.2321 6.2043 27.8122L6.15432 27.9015L6.13223 28.0015C5.90905 29.0115 4.44748 36.0948 6.26602 42.6904L6.34061 42.9609L6.58206 43.1039C7.49178 43.6425 10.4014 45.1553 15.2549 45.9833ZM46.9685 2.87365C46.0383 2.59772 44.7843 2.38721 43.7573 2.27516V2.20412L43.0706 2.19557C30.7682 2.04246 20.6806 9.10768 20.1412 9.49442L20.1074 9.51866L20.0767 9.54675C19.9027 9.70614 18.4465 11.1005 17.463 13.0042L16.885 14.1231L18.1399 14.0161C21.7661 13.7069 25.6306 14.6076 26.925 14.9508L27.2229 15.0297L27.4814 14.8621C33.8592 10.727 42.0299 9.15901 44.1964 8.80437L44.548 8.74681L44.7067 8.42781C45.2256 7.3843 46.2982 5.32561 47.3265 3.95813L47.928 3.15825L46.9685 2.87365ZM69.5889 56.5767L69.8908 56.5891L70.1059 56.3767C71.3628 55.1355 76.2652 49.9422 78.7482 42.2149L78.7936 42.0738L78.7774 41.9265C78.6349 40.625 77.6131 32.9797 72.9515 25.4829L72.857 25.3309L72.7009 25.2434C71.5733 24.6118 65.9138 21.676 57.8602 21.2342L57.4843 21.2136L57.2615 21.5171C53.9995 25.9617 50.785 30.441 47.6186 34.9542L47.4056 35.2579L47.5392 35.604C48.5393 38.1947 52.873 49.4808 54.1792 54.035L54.2916 54.427L54.6885 54.5202C61.6232 56.149 67.9412 56.5091 69.5889 56.5767ZM4.77655 37.6132L3.39119 37.5872C3.07008 40.6688 3.05684 43.7748 3.35166 46.859L4.73281 46.8864C4.8968 45.6785 5.20154 44.4939 5.64082 43.3569L5.72389 43.1419L5.66206 42.9198C5.16619 41.139 4.89066 39.333 4.77655 37.6132ZM17.0115 69.6421L16.6688 69.9723L16.8526 70.4113C18.167 73.5517 21.6999 76.6985 26.2332 79.0111C30.7933 81.3373 36.4847 82.8828 42.2657 82.7278L42.3583 82.7253L42.447 82.6986C43.1044 82.5013 46.8912 81.2977 49.5433 78.7027L50.1043 78.1537L49.4916 77.663C45.5101 74.4739 42.247 70.2859 41.2456 68.9429L41.0371 68.6632H40.6882C37.8163 68.6632 34.0786 67.897 30.7361 67.0131C27.4086 66.1331 24.5339 65.1534 23.4098 64.7575L23.0616 64.6349L22.765 64.8546C21.757 65.6011 19.1422 67.5892 17.0115 69.6421ZM46.991 81.4152L47.4198 82.7068C51.4551 82.2464 56.0578 80.8485 60.1739 79.0543C64.2803 77.2643 67.9771 75.0473 70.1624 72.9062L71.429 71.6652L69.6564 71.7145C68.8487 71.737 68.1215 71.6787 67.6787 71.6307L67.4099 71.6015L67.1921 71.7616C60.3342 76.7994 52.7286 78.11 50.97 78.3527L50.7157 78.3878L50.5452 78.5797C49.5014 79.7547 48.2288 80.6942 46.991 81.4152ZM68.1408 70.119L67.7917 71.0284L68.7653 71.063C69.2969 71.0819 69.8734 71.073 70.4118 71.0131C70.9373 70.9546 71.4845 70.8417 71.9208 70.6189L71.9674 70.595L72.0099 70.5645C75.3865 68.1416 77.9928 64.23 79.8843 60.0923C81.7804 55.9446 82.9894 51.5016 83.5337 47.9366L83.5378 47.9097L83.5398 47.8826C83.6891 45.8514 83.4269 44.4874 83.2558 43.8594L83.1706 43.5468L82.8764 43.4109C82.3877 43.1853 81.4078 42.8055 79.9266 42.5582L79.3452 42.4611L79.1542 43.0186C76.5766 50.5427 71.9261 55.4969 70.5853 56.8107L70.3534 57.038L70.3788 57.3618C70.4963 58.8593 70.6089 63.6886 68.1408 70.119Z" stroke="#2F3E46" stroke-width="1.39062"/>
</g>
<defs>
<filter id="filter0_d_58_1288" x="0.781616" y="0.78125" width="84.4381" height="84.4389" filterUnits="userSpaceOnUse" color-interpolation-filters="sRGB">
<feFlood flood-opacity="0" result="BackgroundImageFix"/>
<feColorMatrix in="SourceAlpha" type="matrix" values="0 0 0 0 0 0 0 0 0 0 0 0 0 0 0 0 0 0 127 0" result="hardAlpha"/>
<feOffset dx="-1" dy="1"/>
<feComposite in2="hardAlpha" operator="out"/>
<feColorMatrix type="matrix" values="0 0 0 0 0.207843 0 0 0 0 0.309804 0 0 0 0 0.321569 0 0 0 0.78 0"/>
<feBlend mode="normal" in2="BackgroundImageFix" result="effect1_dropShadow_58_1288"/>
<feBlend mode="normal" in="SourceGraphic" in2="effect1_dropShadow_58_1288" result="shape"/>
</filter>
<linearGradient id="paint0_linear_58_1288" x1="65" y1="1" x2="13.5" y2="79.5" gradientUnits="userSpaceOnUse">
<stop stop-color="#4572E7"/>
<stop offset="1" stop-color="#004E70"/>
</linearGradient>
</defs>
</svg>
