<svg width="91" height="91" viewBox="0 0 91 91" fill="none" xmlns="http://www.w3.org/2000/svg">
<g filter="url(#filter0_d_67_11422)">
<path fill-rule="evenodd" clip-rule="evenodd" d="M80.493 56.965C80.493 59.3414 78.565 61.27 76.1895 61.27H15.9406C13.5651 61.27 11.6371 59.3414 11.6371 56.965V13.915C11.6371 11.5386 13.5651 9.61 15.9406 9.61H76.1895C78.565 9.61 80.493 11.5386 80.493 13.915V56.965ZM80.45 1H11.5941H11.5769C6.8258 1 3 4.93916 3 9.69618L3.03012 9.78237V61.4424L3 61.3562C3 66.1132 6.8258 69.88 11.5769 69.88H11.5941H37.3978C39.7777 69.88 41.7616 71.8948 41.7616 74.2712V74.227C41.7616 76.6034 39.7777 78.49 37.3978 78.49H24.4873C22.1118 78.49 20.2441 80.5048 20.2441 82.8812V82.837C20.2441 85.2134 22.1118 87.1 24.4873 87.1H67.5223C69.9021 87.1 71.886 85.2575 71.886 82.8812V82.837C71.886 80.4607 69.9021 78.49 67.5223 78.49H54.6118C52.2363 78.49 50.3685 76.6475 50.3685 74.2712V74.227C50.3685 71.8507 52.2363 69.88 54.6118 69.88H80.45L80.4801 69.9662C85.2225 69.9662 89.1 66.2034 89.1 61.455V61.4424V9.78237V9.76976C89.1 5.02134 85.2225 1.08618 80.4801 1.08618L80.45 1Z" fill="url(#paint0_linear_67_11422)"/>
<path fill-rule="evenodd" clip-rule="evenodd" d="M80.493 56.965C80.493 59.3414 78.565 61.27 76.1895 61.27H15.9406C13.5651 61.27 11.6371 59.3414 11.6371 56.965V13.915C11.6371 11.5386 13.5651 9.61 15.9406 9.61H76.1895C78.565 9.61 80.493 11.5386 80.493 13.915V56.965ZM80.45 1H11.5941H11.5769C6.8258 1 3 4.93916 3 9.69618L3.03012 9.78237V61.4424L3 61.3562C3 66.1132 6.8258 69.88 11.5769 69.88H11.5941H37.3978C39.7777 69.88 41.7616 71.8948 41.7616 74.2712V74.227C41.7616 76.6034 39.7777 78.49 37.3978 78.49H24.4873C22.1118 78.49 20.2441 80.5048 20.2441 82.8812V82.837C20.2441 85.2134 22.1118 87.1 24.4873 87.1H67.5223C69.9021 87.1 71.886 85.2575 71.886 82.8812V82.837C71.886 80.4607 69.9021 78.49 67.5223 78.49H54.6118C52.2363 78.49 50.3685 76.6475 50.3685 74.2712V74.227C50.3685 71.8507 52.2363 69.88 54.6118 69.88H80.45L80.4801 69.9662C85.2225 69.9662 89.1 66.2034 89.1 61.455V61.4424V9.78237V9.76976C89.1 5.02134 85.2225 1.08618 80.4801 1.08618L80.45 1Z" stroke="#2F3E46" stroke-width="2"/>
</g>
<defs>
<filter id="filter0_d_67_11422" x="0" y="0" width="90.1" height="90.1" filterUnits="userSpaceOnUse" color-interpolation-filters="sRGB">
<feFlood flood-opacity="0" result="BackgroundImageFix"/>
<feColorMatrix in="SourceAlpha" type="matrix" values="0 0 0 0 0 0 0 0 0 0 0 0 0 0 0 0 0 0 127 0" result="hardAlpha"/>
<feOffset dx="-2" dy="2"/>
<feComposite in2="hardAlpha" operator="out"/>
<feColorMatrix type="matrix" values="0 0 0 0 0.207843 0 0 0 0 0.309804 0 0 0 0 0.321569 0 0 0 0.78 0"/>
<feBlend mode="normal" in2="BackgroundImageFix" result="effect1_dropShadow_67_11422"/>
<feBlend mode="normal" in="SourceGraphic" in2="effect1_dropShadow_67_11422" result="shape"/>
</filter>
<linearGradient id="paint0_linear_67_11422" x1="81.5" y1="4.50001" x2="12" y2="83" gradientUnits="userSpaceOnUse">
<stop stop-color="#D600C0"/>
<stop offset="1" stop-color="#623DCC"/>
</linearGradient>
</defs>
</svg>
