<svg width="87" height="87" viewBox="0 0 87 87" fill="none" xmlns="http://www.w3.org/2000/svg">
<path fill-rule="evenodd" clip-rule="evenodd" d="M43.0299 55.6062C49.9646 55.6062 55.5862 49.9846 55.5862 43.05C55.5862 36.1154 49.9646 30.4937 43.0299 30.4937C36.0953 30.4937 30.4736 36.1154 30.4736 43.05C30.4736 49.9846 36.0953 55.6062 43.0299 55.6062ZM43.0299 48.4112C40.0692 48.4112 37.6688 46.0108 37.6688 43.05C37.6688 40.0892 40.0692 37.6888 43.0299 37.6888C45.9907 37.6888 48.3911 40.0892 48.3911 43.05C48.3911 46.0108 45.9907 48.4112 43.0299 48.4112Z" fill="#2F3E46"/>
<path fill-rule="evenodd" clip-rule="evenodd" d="M43.05 17.9375C25.7898 17.9375 14.0512 27.2975 7.85411 34.0087C3.07589 39.1834 3.07589 46.9166 7.85411 52.0912C14.0512 58.8027 25.7898 68.1625 43.05 68.1625C60.3102 68.1625 72.0488 58.8027 78.2459 52.0912C83.0241 46.9166 83.0241 39.1834 78.2459 34.0087C72.0488 27.2975 60.3102 17.9375 43.05 17.9375ZM13.1255 38.8763C18.6131 32.9333 28.5812 25.1125 43.05 25.1125C57.5187 25.1125 67.487 32.9333 72.9744 38.8763C75.2144 41.3022 75.2144 44.7978 72.9744 47.2237C67.487 53.1667 57.5187 60.9875 43.05 60.9875C28.5812 60.9875 18.6131 53.1667 13.1255 47.2237C10.8854 44.7978 10.8854 41.3022 13.1255 38.8763Z" fill="#2F3E46"/>
</svg>
