<svg width="82" height="96" viewBox="0 0 82 96" fill="none" xmlns="http://www.w3.org/2000/svg">
<path d="M50.6041 3.93661L51.6532 4.13985L50.6041 3.93663L44.4427 35.7449C44.0595 37.7233 45.575 39.5605 47.5902 39.5605L77.4951 39.5605C78.5668 39.5605 79.4614 40.0827 79.8674 40.7813C80.2531 41.4462 80.1845 42.2347 79.6374 42.8619L79.6372 42.8621L35.4226 93.5871C34.7219 94.3909 33.3862 94.7351 32.2003 94.2984L32.1999 94.2983C31.0342 93.8695 30.5339 92.9017 30.6953 92.0692L30.6953 92.0691L36.8566 60.2606C37.2398 58.2822 35.7244 56.445 33.7092 56.445L3.80399 56.445C2.73252 56.445 1.83837 55.9229 1.4324 55.2242L1.43237 55.2242C1.04621 54.5597 1.11469 53.7711 1.66187 53.1434L0.856317 52.4412L1.66188 53.1434L45.8767 2.41866C46.5776 1.61463 47.9134 1.27027 49.0991 1.70682C50.2652 2.13615 50.7655 3.10358 50.6041 3.93661Z" fill="url(#paint0_linear_865_2133)" stroke="#1A1423" stroke-width="2.13729"/>
<defs>
<linearGradient id="paint0_linear_865_2133" x1="1.81521" y1="14.5945" x2="77.7896" y2="17.2615" gradientUnits="userSpaceOnUse">
<stop stop-color="#FFAD4E"/>
<stop offset="1" stop-color="#FFE299"/>
</linearGradient>
</defs>
</svg>
