<svg id="Layer_1" data-name="Layer 1" xmlns="http://www.w3.org/2000/svg" viewBox="0 0 1000 1000">
    <defs>
        <style>
            .cls-1 {
                fill: #364f52;
            }
        </style>
    </defs>
    <title>quizwizArtboard 11</title>
    <path class="cls-1"
        d="M340.31,491.65a99.35,99.35,0,0,0,16.2-55.38q0-42-29-71.13T256.61,336q-41.73,0-70.75,29.16t-29,71.13q0,42.11,29,71.39t70.75,29.28a101.62,101.62,0,0,0,45.55-10.71l5.74,7.53H373Zm-83.64-9.13A51.49,51.49,0,1,1,308.15,431,51.48,51.48,0,0,1,256.67,482.52Z" />
    <path class="cls-1"
        d="M564.63,380.13V533.75H489.09V506.83h-.51Q477,521.5,464.85,528.27T436,535q-24.12,0-38.86-14.29t-14.73-40.07V380.13h74.51v82.81q0,20.93,14.3,20.92a15.72,15.72,0,0,0,14.41-8.16V380.13Z" />
    <path class="cls-1"
        d="M642.49,479.56q9.1,108.77,18.19,217.51h-78.8c1.32,0,8.25-98.83,9-107.9.77-9.23,7.24-108.82,9.1-108.88l.06,0a10.88,10.88,0,0,0,5,9.16c3.34,2.26,7.45,3,11.45,3.46,5.41.59,11.06.68,16.12-1.33S642.06,485,642.49,479.56Z" />
    <path class="cls-1" d="M842.41,482.33v51.42H677.93l55.51-104.5H685.08V380.13H843.17l-54.35,102.2Z" />
    <path class="cls-1"
        d="M308.16,543.45h80.77l15.18,32.92,13.78-32.92h36.62l14.42,32.92,15.57-32.92h81.79L498.15,697.08H454.26L436,655l-18.37,42.11h-43.9Z" />
    <path class="cls-1" d="M842.41,645.66v51.42H677.93l55.51-104.5H685.08V543.45H843.17L788.82,645.66Z" />
    <path class="cls-1"
        d="M676.7,351.21c0,14.1-9.65,29.23-19,43.93-7.87,12.34-15.33,24-18.45,36.34h-7.36c1.68-6.56,3.64-14.42,5.86-23.44.59-2.47,1.21-5,1.84-7.63l.42-1.68c.24-1,.48-1.93.71-2.92a12.57,12.57,0,0,0,5.5-2.9l.09-.08a10.62,10.62,0,0,0,3.25-9.41,7.51,7.51,0,0,0-5.14-6,7.71,7.71,0,0,0-4.49-.11l-.38.12a8.28,8.28,0,0,0-3.2,2.14,16.9,16.9,0,0,0-3.27,5.79,24.57,24.57,0,0,1-3.41-2,17.69,17.69,0,0,1-2-1.55,17.13,17.13,0,0,0,1.06-1.82,11.69,11.69,0,0,0,1.11-3.73,8.39,8.39,0,0,0-1.1-5.18,8.77,8.77,0,0,0-4.32-3.76l-.13-.05a9.14,9.14,0,0,0-6,0l-.09,0a8.79,8.79,0,0,0-4.35,3.79,8.46,8.46,0,0,0-1.08,5.19,11.91,11.91,0,0,0,1.14,3.76,17.34,17.34,0,0,0,1,1.76,18.49,18.49,0,0,1-2,1.54,25.79,25.79,0,0,1-3.41,2,16.87,16.87,0,0,0-3.31-5.82,8.22,8.22,0,0,0-3.17-2.11l-.38-.12a7.7,7.7,0,0,0-4.44.09,7.52,7.52,0,0,0-5.18,6,10.62,10.62,0,0,0,3.25,9.46l.08.08a12.62,12.62,0,0,0,5.5,2.9c.23,1,.46,2,.7,2.88l2.28,9.37c2.16,8.8,4.14,16.79,5.84,23.42h-7.35c-3.13-12.32-10.62-24-18.51-36.41-9.33-14.64-19-29.77-19-43.86,0-26.64,24.86-48.29,55.42-48.29S676.7,324.57,676.7,351.21Z" />
    <path class="cls-1"
        d="M633.75,393.33c0,.13-.06.26-.09.39-.26,1.08-.5,2.14-.79,3.24l-.42,1.71q-1,3.94-1.85,7.65c-2.75,11.17-5.1,20.57-7,27.91l-.24.91H619.2l-.24-.91c-1.9-7.35-4.32-17-7-27.91l-2.29-9.43c-.27-1-.52-2.1-.77-3.17l-.09-.39a23.67,23.67,0,0,0,8.21-3.85,21.18,21.18,0,0,0,4.26-3.67,21.18,21.18,0,0,0,4.26,3.67A23.88,23.88,0,0,0,633.75,393.33Z" />
    <path class="cls-1"
        d="M634.82,392.49c-.36,1.65-.7,3.25-1.08,4.82-.73,3.23-1.44,6.38-2.13,9.4-2.55,11.3-4.66,21-6.22,28.43h-2l.24-.91c1.9-7.34,4.25-16.74,7-27.91q.89-3.7,1.85-7.65l.42-1.71c.29-1.1.53-2.16.79-3.24,0-.13.05-.26.09-.39a23.88,23.88,0,0,1-8.2-3.85,21.18,21.18,0,0,1-4.26-3.67,21.18,21.18,0,0,1-4.26,3.67,23.67,23.67,0,0,1-8.21,3.85l.09.39c.25,1.07.5,2.13.77,3.17l2.29,9.43c2.67,10.91,5.09,20.56,7,27.91l.24.91h-2c-1.56-7.42-3.67-17.13-6.22-28.43-.68-3-1.4-6.17-2.12-9.4-.39-1.57-.72-3.17-1.09-4.82,2.46-.54,7.84-2.37,13.54-8.53C627,390.12,632.37,392,634.82,392.49Z" />
    <path class="cls-1"
        d="M642.46,438.79v5.43h-3v5.44h0v5.43h-3v1l-13.79,4.48h13.79V466h-4a11.81,11.81,0,0,1-22.62,0,11.11,11.11,0,0,1-.29-1.17L606,466v-5.43l16.75-5.44h-19.7v-5.43l19.7-5.44H600.1v-5.43Z" />
</svg>